<svg width="1280" height="652" viewBox="0 0 1280 652" fill="none" xmlns="http://www.w3.org/2000/svg">
<g clip-path="url(#clip0_2466_82)">
<g opacity="0.6">
<path d="M877.004 -26.6396V678.994" stroke="black" stroke-opacity="0.08" stroke-width="0.90131"/>
<path d="M977.809 -26.6436V678.99" stroke="black" stroke-opacity="0.08" stroke-width="0.90131"/>
<path d="M1078.62 -26.6436V678.99" stroke="black" stroke-opacity="0.08" stroke-width="0.90131"/>
<path d="M1179.42 -26.6436V678.99" stroke="black" stroke-opacity="0.08" stroke-width="0.90131"/>
<path d="M1280.23 -26.6436V678.99" stroke="url(#paint0_linear_2466_82)" stroke-opacity="0.5" stroke-width="0.781075"/>
<path d="M1381.03 74.1631L675.396 74.1631" stroke="url(#paint1_linear_2466_82)" stroke-width="0.90131"/>
<path d="M1381.02 174.966L675.391 174.966" stroke="url(#paint2_linear_2466_82)" stroke-width="0.90131"/>
<path d="M1381.03 275.773L675.396 275.773" stroke="url(#paint3_linear_2466_82)" stroke-width="0.90131"/>
<path d="M1381.03 376.581L675.396 376.581" stroke="url(#paint4_linear_2466_82)" stroke-width="0.90131"/>
<path d="M1381.03 477.384L675.396 477.384" stroke="url(#paint5_linear_2466_82)" stroke-width="0.90131"/>
<path d="M1381.03 578.188L675.396 578.187" stroke="url(#paint6_linear_2466_82)" stroke-width="0.90131"/>
<g filter="url(#filter0_f_2466_82)">
<circle cx="879.43" cy="298.904" r="46.1482" fill="black"/>
</g>
<g filter="url(#filter1_f_2466_82)">
<circle cx="1180.92" cy="175.492" r="53.6523" fill="black"/>
</g>
<path d="M1325.81 264.439C1325.22 246.124 1317.63 242.766 1306.45 241.545C1295.27 240.324 1277.5 260.166 1273.91 255.282C1270.32 250.398 1220.81 217.43 1216.42 212.241C1212.03 207.052 1207.24 204.304 1196.66 204.61C1186.07 204.915 1192.06 184.158 1187.87 185.684C1183.68 187.21 1183.88 179.27 1179.89 175.607C1175.89 171.944 1182.48 183.848 1166.31 215.289C1150.14 246.73 1104.03 301.98 1090.65 317.548C1077.28 333.116 1056.85 338.303 1051.89 342.902C1046.93 347.501 1037.15 374.176 1032.59 389C1028.95 400.859 1024.69 401.862 1023.01 400.881C1005.16 389.961 921.934 386.181 907.651 384.501C893.368 382.821 901.608 373.161 901.608 362.661C901.608 352.16 896.114 367.284 887.599 353.003C879.084 338.723 878.817 296.637 876.894 299.997C874.971 303.357 874.415 321.505 872.492 330.745C870.569 339.985 864.252 327.382 862.329 325.282C860.406 323.182 859.857 329.482 856.836 342.083C853.814 354.683 840.63 378.205 823.325 415.585C806.021 452.966 792.519 431.946 786.068 456.319C779.616 480.691 740.907 549.166 735.594 557.29C731.344 563.788 731.293 573.927 731.8 578.184C728.199 583.165 720.884 597.74 720.422 616.197C719.845 639.269 727.344 636.385 714.655 642.729C701.965 649.074 699.081 648.497 698.504 658.879C697.927 669.261 688.122 666.954 680.047 679.644" stroke="url(#paint7_linear_2466_82)" stroke-width="0.90131"/>
<path d="M1295.41 244.926L1285.65 256.208L1272.96 258.794C1259.94 248.484 1233.73 227.793 1233.03 227.513C1232.16 227.162 1224.1 223.657 1223.22 223.482C1222.34 223.307 1218.66 215.596 1217.44 214.369C1216.45 213.387 1217.84 209.053 1218.66 207.008L1211.3 205.606L1200.61 204.555H1194.83L1189.22 201.225V189.658L1184.49 187.905L1181.16 178.793L1178.35 183.175V191.237L1169.94 209.11L1167.49 216.823L1152.24 233.121C1149.32 240.481 1143.34 255.342 1142.78 255.903C1142.22 256.464 1135.3 264.901 1131.91 269.049L1112.81 284.822C1110.71 287.041 1106.4 291.725 1105.97 292.706C1105.45 293.933 1102.12 304.448 1101.59 305.149C1101.07 305.85 1091.78 316.19 1091.08 316.891C1090.38 317.592 1075.48 325.829 1074.78 326.355C1074.22 326.775 1067.07 330.619 1063.56 332.489L1060.41 338.623L1044.99 354.746C1042.42 359.887 1036.92 370.729 1035.52 372.972C1034.12 375.215 1034.24 381.969 1034.47 385.065L1035.52 392.425L1028.69 395.58L1024.83 397.332L1008.71 394.528L1001.87 392.425L986.977 395.58L976.637 394.528L969.452 392.425C967.057 391.549 962.056 389.797 961.215 389.797C960.164 389.797 952.277 386.992 951.226 386.467C950.384 386.046 946.085 384.656 944.04 384.013H934.226L921.433 382.611H908.639C907.062 382.027 903.662 380.824 902.68 380.683C901.699 380.543 902.272 378.055 902.68 376.828L900.402 368.941V361.756L897.248 355.797L891.114 353.519V348.261L894.268 349.313L887.609 338.272L877.093 300.069L868.857 321.975H863.424H859.743L857.64 325.831L855.362 332.84L851.682 337.046L844.672 338.272L824.426 401.575L816.85 419.703L810.897 427.28L802.51 433.503L798.18 445.948L788.44 458.395L769.5 483.83V527.933L750.289 550.932V557.425L732.579 578.569C725.71 588.557 714.967 614.787 726.938 639.803" stroke="url(#paint8_linear_2466_82)" stroke-opacity="0.6" stroke-width="0.781075"/>
</g>
<circle cx="1179.42" cy="174.969" r="5.78814" fill="black" stroke="black" stroke-width="0.116932"/>
<circle cx="877.005" cy="303.758" r="5.78814" fill="black" stroke="black" stroke-width="0.116932"/>
<rect width="292" height="62.7716" transform="translate(914 233.614)" fill="#EFEFEF" fill-opacity="0.92"/>
<path d="M931.184 260.614V249.414H934.496C935.285 249.414 935.957 249.532 936.512 249.766C937.067 249.99 937.493 250.332 937.792 250.79C938.091 251.249 938.24 251.83 938.24 252.534C938.24 253.409 938.011 254.07 937.552 254.518C937.104 254.966 936.491 255.26 935.712 255.398L938.928 260.614H937.264L934.384 255.654H932.528V260.614H931.184ZM932.528 254.518H934.464C935.061 254.518 935.536 254.449 935.888 254.31C936.24 254.161 936.491 253.937 936.64 253.638C936.789 253.34 936.864 252.972 936.864 252.534C936.864 252.086 936.789 251.713 936.64 251.414C936.491 251.116 936.24 250.897 935.888 250.758C935.536 250.609 935.061 250.534 934.464 250.534H932.528V254.518ZM943.672 260.806C942.936 260.806 942.269 260.636 941.672 260.294C941.085 259.953 940.621 259.473 940.28 258.854C939.939 258.225 939.768 257.489 939.768 256.646C939.768 255.814 939.928 255.089 940.248 254.47C940.579 253.841 941.037 253.356 941.624 253.014C942.221 252.662 942.915 252.486 943.704 252.486C944.451 252.486 945.101 252.652 945.656 252.982C946.211 253.313 946.643 253.761 946.952 254.326C947.272 254.881 947.432 255.505 947.432 256.198C947.432 256.348 947.432 256.465 947.432 256.55C947.432 256.636 947.427 256.769 947.416 256.95H941.096C941.128 257.473 941.251 257.942 941.464 258.358C941.688 258.764 941.987 259.084 942.36 259.318C942.744 259.553 943.181 259.67 943.672 259.67C944.227 259.67 944.691 259.542 945.064 259.286C945.437 259.03 945.709 258.684 945.88 258.246H947.208C947.069 258.737 946.84 259.174 946.52 259.558C946.2 259.942 945.8 260.246 945.32 260.47C944.851 260.694 944.301 260.806 943.672 260.806ZM941.112 255.91H946.104C946.072 255.196 945.827 254.636 945.368 254.23C944.909 253.825 944.344 253.622 943.672 253.622C943.032 253.622 942.461 253.82 941.96 254.214C941.469 254.598 941.187 255.164 941.112 255.91ZM951.189 260.614L948.181 252.678H949.589L951.973 259.318L954.373 252.678H955.749L952.741 260.614H951.189ZM960.406 260.806C959.67 260.806 959.004 260.636 958.406 260.294C957.82 259.953 957.356 259.473 957.014 258.854C956.673 258.225 956.502 257.489 956.502 256.646C956.502 255.814 956.662 255.089 956.982 254.47C957.313 253.841 957.772 253.356 958.358 253.014C958.956 252.662 959.649 252.486 960.438 252.486C961.185 252.486 961.836 252.652 962.39 252.982C962.945 253.313 963.377 253.761 963.686 254.326C964.006 254.881 964.166 255.505 964.166 256.198C964.166 256.348 964.166 256.465 964.166 256.55C964.166 256.636 964.161 256.769 964.15 256.95H957.83C957.862 257.473 957.985 257.942 958.198 258.358C958.422 258.764 958.721 259.084 959.094 259.318C959.478 259.553 959.916 259.67 960.406 259.67C960.961 259.67 961.425 259.542 961.798 259.286C962.172 259.03 962.444 258.684 962.614 258.246H963.942C963.804 258.737 963.574 259.174 963.254 259.558C962.934 259.942 962.534 260.246 962.054 260.47C961.585 260.694 961.036 260.806 960.406 260.806ZM957.846 255.91H962.838C962.806 255.196 962.561 254.636 962.102 254.23C961.644 253.825 961.078 253.622 960.406 253.622C959.766 253.622 959.196 253.82 958.694 254.214C958.204 254.598 957.921 255.164 957.846 255.91ZM965.948 260.614V252.678H967.164L967.244 254.102C967.5 253.601 967.868 253.206 968.348 252.918C968.828 252.63 969.372 252.486 969.98 252.486C970.918 252.486 971.665 252.774 972.22 253.35C972.785 253.916 973.068 254.79 973.068 255.974V260.614H971.724V256.118C971.724 255.297 971.553 254.678 971.212 254.262C970.87 253.846 970.358 253.638 969.676 253.638C968.993 253.638 968.422 253.889 967.964 254.39C967.516 254.881 967.292 255.585 967.292 256.502V260.614H965.948ZM978.032 260.806C977.413 260.806 976.869 260.684 976.4 260.438C975.941 260.182 975.584 259.798 975.328 259.286C975.072 258.764 974.944 258.108 974.944 257.318V252.678H976.288V257.174C976.288 257.996 976.458 258.614 976.8 259.03C977.141 259.446 977.653 259.654 978.336 259.654C979.018 259.654 979.584 259.409 980.032 258.918C980.49 258.417 980.72 257.708 980.72 256.79V252.678H982.064V260.614H980.848L980.768 259.19C980.512 259.692 980.144 260.086 979.664 260.374C979.184 260.662 978.64 260.806 978.032 260.806ZM987.844 260.806C987.108 260.806 986.441 260.636 985.844 260.294C985.257 259.953 984.793 259.473 984.452 258.854C984.111 258.225 983.94 257.489 983.94 256.646C983.94 255.814 984.1 255.089 984.42 254.47C984.751 253.841 985.209 253.356 985.796 253.014C986.393 252.662 987.087 252.486 987.876 252.486C988.623 252.486 989.273 252.652 989.828 252.982C990.383 253.313 990.815 253.761 991.124 254.326C991.444 254.881 991.604 255.505 991.604 256.198C991.604 256.348 991.604 256.465 991.604 256.55C991.604 256.636 991.599 256.769 991.588 256.95H985.268C985.3 257.473 985.423 257.942 985.636 258.358C985.86 258.764 986.159 259.084 986.532 259.318C986.916 259.553 987.353 259.67 987.844 259.67C988.399 259.67 988.863 259.542 989.236 259.286C989.609 259.03 989.881 258.684 990.052 258.246H991.38C991.241 258.737 991.012 259.174 990.692 259.558C990.372 259.942 989.972 260.246 989.492 260.47C989.023 260.694 988.473 260.806 987.844 260.806ZM985.284 255.91H990.276C990.244 255.196 989.999 254.636 989.54 254.23C989.081 253.825 988.516 253.622 987.844 253.622C987.204 253.622 986.633 253.82 986.132 254.214C985.641 254.598 985.359 255.164 985.284 255.91ZM997.7 262.214V249.094H999.044V262.214H997.7ZM1005.65 260.614V249.414H1012.47V250.518H1007V254.294H1011.65V255.382H1007V260.614H1005.65ZM1016.98 260.614V256.358L1013.34 249.414H1014.86L1017.66 255.078L1020.46 249.414H1021.96L1018.33 256.358V260.614H1016.98ZM1027.68 260.614V259.446C1027.68 259.446 1027.76 259.361 1027.92 259.19C1028.09 259.009 1028.32 258.78 1028.6 258.502C1028.87 258.225 1029.17 257.921 1029.48 257.59C1029.8 257.26 1030.11 256.934 1030.42 256.614C1030.73 256.294 1031 256.012 1031.24 255.766C1031.63 255.361 1031.98 254.982 1032.29 254.63C1032.61 254.278 1032.87 253.937 1033.06 253.606C1033.25 253.276 1033.35 252.945 1033.35 252.614C1033.35 251.953 1033.18 251.414 1032.85 250.998C1032.53 250.582 1032.01 250.374 1031.28 250.374C1030.82 250.374 1030.42 250.481 1030.08 250.694C1029.75 250.897 1029.5 251.174 1029.32 251.526C1029.14 251.878 1029.06 252.284 1029.06 252.742H1027.76C1027.76 252.028 1027.91 251.409 1028.2 250.886C1028.49 250.364 1028.91 249.958 1029.44 249.67C1029.98 249.372 1030.6 249.222 1031.3 249.222C1031.99 249.222 1032.59 249.35 1033.09 249.606C1033.6 249.852 1034 250.225 1034.28 250.726C1034.55 251.217 1034.69 251.83 1034.69 252.566C1034.69 253.068 1034.57 253.537 1034.32 253.974C1034.08 254.412 1033.78 254.812 1033.44 255.174C1033.1 255.537 1032.79 255.868 1032.5 256.166C1032.33 256.337 1032.1 256.561 1031.83 256.838C1031.56 257.116 1031.28 257.409 1030.98 257.718C1030.69 258.017 1030.41 258.305 1030.15 258.582C1029.89 258.849 1029.68 259.068 1029.51 259.238C1029.35 259.409 1029.27 259.494 1029.27 259.494H1035.08V260.614H1027.68ZM1041.01 260.806C1040.29 260.806 1039.65 260.678 1039.07 260.422C1038.5 260.156 1038.05 259.782 1037.69 259.302C1037.34 258.812 1037.12 258.241 1037.04 257.59H1038.35C1038.48 258.209 1038.78 258.71 1039.25 259.094C1039.71 259.468 1040.31 259.654 1041.02 259.654C1041.55 259.654 1042.01 259.532 1042.4 259.286C1042.78 259.041 1043.07 258.705 1043.28 258.278C1043.49 257.852 1043.6 257.372 1043.6 256.838C1043.6 256.006 1043.36 255.334 1042.89 254.822C1042.42 254.31 1041.82 254.054 1041.07 254.054C1040.45 254.054 1039.92 254.193 1039.49 254.47C1039.05 254.748 1038.73 255.11 1038.53 255.558H1037.25L1038.21 249.414H1044.08V250.582H1039.25L1038.59 253.99C1038.85 253.681 1039.2 253.425 1039.65 253.222C1040.1 253.02 1040.63 252.918 1041.21 252.918C1041.95 252.918 1042.59 253.089 1043.13 253.43C1043.69 253.772 1044.12 254.236 1044.43 254.822C1044.58 255.121 1044.69 255.436 1044.77 255.766C1044.85 256.097 1044.89 256.449 1044.89 256.822C1044.89 257.601 1044.73 258.289 1044.4 258.886C1044.08 259.484 1043.62 259.953 1043.04 260.294C1042.46 260.636 1041.78 260.806 1041.01 260.806ZM1046.65 256.534V255.398H1052.98V256.534H1046.65ZM1055.07 260.614V259.446C1055.07 259.446 1055.15 259.361 1055.31 259.19C1055.48 259.009 1055.71 258.78 1055.99 258.502C1056.26 258.225 1056.56 257.921 1056.87 257.59C1057.19 257.26 1057.5 256.934 1057.81 256.614C1058.12 256.294 1058.39 256.012 1058.63 255.766C1059.02 255.361 1059.37 254.982 1059.68 254.63C1060 254.278 1060.26 253.937 1060.45 253.606C1060.64 253.276 1060.74 252.945 1060.74 252.614C1060.74 251.953 1060.57 251.414 1060.24 250.998C1059.92 250.582 1059.4 250.374 1058.67 250.374C1058.22 250.374 1057.82 250.481 1057.47 250.694C1057.14 250.897 1056.89 251.174 1056.71 251.526C1056.54 251.878 1056.45 252.284 1056.45 252.742H1055.15C1055.15 252.028 1055.3 251.409 1055.59 250.886C1055.88 250.364 1056.3 249.958 1056.83 249.67C1057.37 249.372 1057.99 249.222 1058.69 249.222C1059.38 249.222 1059.98 249.35 1060.48 249.606C1060.99 249.852 1061.39 250.225 1061.67 250.726C1061.94 251.217 1062.08 251.83 1062.08 252.566C1062.08 253.068 1061.96 253.537 1061.71 253.974C1061.47 254.412 1061.18 254.812 1060.83 255.174C1060.49 255.537 1060.18 255.868 1059.89 256.166C1059.72 256.337 1059.5 256.561 1059.22 256.838C1058.95 257.116 1058.67 257.409 1058.37 257.718C1058.08 258.017 1057.8 258.305 1057.54 258.582C1057.28 258.849 1057.07 259.068 1056.9 259.238C1056.74 259.409 1056.66 259.494 1056.66 259.494H1062.47V260.614H1055.07ZM1068.59 260.806C1067.83 260.806 1067.19 260.657 1066.65 260.358C1066.13 260.049 1065.71 259.638 1065.39 259.126C1065.08 258.614 1064.85 258.044 1064.7 257.414C1064.56 256.774 1064.49 256.124 1064.49 255.462C1064.49 254.225 1064.65 253.142 1064.97 252.214C1065.29 251.276 1065.76 250.545 1066.38 250.022C1066.68 249.756 1067.01 249.558 1067.37 249.43C1067.75 249.292 1068.15 249.222 1068.57 249.222C1069.23 249.222 1069.8 249.361 1070.27 249.638C1070.75 249.916 1071.13 250.289 1071.4 250.758C1071.54 250.993 1071.65 251.238 1071.72 251.494C1071.81 251.75 1071.87 252.017 1071.92 252.294H1070.68C1070.58 251.686 1070.33 251.217 1069.95 250.886C1069.57 250.556 1069.11 250.39 1068.56 250.39C1068.05 250.39 1067.6 250.556 1067.18 250.886C1066.76 251.206 1066.43 251.718 1066.17 252.422C1065.92 253.116 1065.78 254.028 1065.76 255.158C1066 254.657 1066.37 254.246 1066.88 253.926C1067.38 253.606 1068 253.446 1068.75 253.446C1069.36 253.446 1069.92 253.596 1070.44 253.894C1070.98 254.193 1071.41 254.614 1071.74 255.158C1072.07 255.702 1072.24 256.332 1072.24 257.046C1072.24 257.676 1072.09 258.278 1071.79 258.854C1071.5 259.43 1071.08 259.9 1070.52 260.262C1069.99 260.625 1069.35 260.806 1068.59 260.806ZM1068.51 259.622C1069.01 259.622 1069.44 259.51 1069.79 259.286C1070.14 259.052 1070.41 258.742 1070.59 258.358C1070.78 257.974 1070.88 257.558 1070.88 257.11C1070.88 256.353 1070.65 255.75 1070.19 255.302C1069.74 254.844 1069.18 254.614 1068.51 254.614C1068.04 254.614 1067.62 254.732 1067.26 254.966C1066.9 255.201 1066.61 255.51 1066.41 255.894C1066.22 256.268 1066.12 256.678 1066.12 257.126C1066.12 257.596 1066.22 258.022 1066.41 258.406C1066.61 258.78 1066.9 259.078 1067.26 259.302C1067.62 259.516 1068.04 259.622 1068.51 259.622ZM1074.66 254.31C1074.4 254.31 1074.17 254.225 1073.99 254.054C1073.82 253.873 1073.73 253.654 1073.73 253.398C1073.73 253.142 1073.82 252.929 1073.99 252.758C1074.17 252.577 1074.4 252.486 1074.66 252.486C1074.92 252.486 1075.13 252.577 1075.3 252.758C1075.48 252.929 1075.57 253.142 1075.57 253.398C1075.57 253.654 1075.48 253.873 1075.3 254.054C1075.13 254.225 1074.92 254.31 1074.66 254.31ZM1074.66 260.694C1074.4 260.694 1074.17 260.609 1073.99 260.438C1073.82 260.257 1073.73 260.038 1073.73 259.782C1073.73 259.526 1073.82 259.313 1073.99 259.142C1074.17 258.961 1074.4 258.87 1074.66 258.87C1074.92 258.87 1075.13 258.961 1075.3 259.142C1075.48 259.313 1075.57 259.526 1075.57 259.782C1075.57 260.038 1075.48 260.257 1075.3 260.438C1075.13 260.609 1074.92 260.694 1074.66 260.694ZM1081.7 260.614V249.414H1083.04V260.614H1081.7ZM1085.42 260.614V249.414H1086.76L1092.73 258.39V249.414H1094.07V260.614H1092.73L1086.76 251.638V260.614H1085.42ZM1096.45 260.614V249.414H1099.76C1100.55 249.414 1101.22 249.532 1101.78 249.766C1102.33 249.99 1102.76 250.332 1103.06 250.79C1103.36 251.249 1103.51 251.83 1103.51 252.534C1103.51 253.409 1103.28 254.07 1102.82 254.518C1102.37 254.966 1101.76 255.26 1100.98 255.398L1104.19 260.614H1102.53L1099.65 255.654H1097.79V260.614H1096.45ZM1097.79 254.518H1099.73C1100.33 254.518 1100.8 254.449 1101.15 254.31C1101.51 254.161 1101.76 253.937 1101.91 253.638C1102.05 253.34 1102.13 252.972 1102.13 252.534C1102.13 252.086 1102.05 251.713 1101.91 251.414C1101.76 251.116 1101.51 250.897 1101.15 250.758C1100.8 250.609 1100.33 250.534 1099.73 250.534H1097.79V254.518ZM1110.15 260.614V259.446C1110.15 259.446 1110.23 259.361 1110.39 259.19C1110.56 259.009 1110.79 258.78 1111.06 258.502C1111.34 258.225 1111.64 257.921 1111.94 257.59C1112.26 257.26 1112.58 256.934 1112.89 256.614C1113.2 256.294 1113.47 256.012 1113.7 255.766C1114.1 255.361 1114.45 254.982 1114.76 254.63C1115.08 254.278 1115.34 253.937 1115.53 253.606C1115.72 253.276 1115.82 252.945 1115.82 252.614C1115.82 251.953 1115.65 251.414 1115.32 250.998C1115 250.582 1114.48 250.374 1113.75 250.374C1113.29 250.374 1112.89 250.481 1112.55 250.694C1112.22 250.897 1111.97 251.174 1111.78 251.526C1111.61 251.878 1111.53 252.284 1111.53 252.742H1110.23C1110.23 252.028 1110.38 251.409 1110.66 250.886C1110.96 250.364 1111.38 249.958 1111.91 249.67C1112.45 249.372 1113.06 249.222 1113.77 249.222C1114.46 249.222 1115.06 249.35 1115.56 249.606C1116.07 249.852 1116.47 250.225 1116.74 250.726C1117.02 251.217 1117.16 251.83 1117.16 252.566C1117.16 253.068 1117.04 253.537 1116.79 253.974C1116.55 254.412 1116.25 254.812 1115.91 255.174C1115.57 255.537 1115.26 255.868 1114.97 256.166C1114.8 256.337 1114.57 256.561 1114.3 256.838C1114.03 257.116 1113.75 257.409 1113.45 257.718C1113.16 258.017 1112.88 258.305 1112.62 258.582C1112.36 258.849 1112.15 259.068 1111.98 259.238C1111.82 259.409 1111.74 259.494 1111.74 259.494H1117.54V260.614H1110.15ZM1118.61 262.518L1119.54 258.982H1120.93L1119.54 262.518H1118.61ZM1126.51 260.806C1125.75 260.806 1125.11 260.657 1124.57 260.358C1124.05 260.049 1123.63 259.638 1123.31 259.126C1123 258.614 1122.77 258.044 1122.62 257.414C1122.48 256.774 1122.41 256.124 1122.41 255.462C1122.41 254.225 1122.57 253.142 1122.89 252.214C1123.21 251.276 1123.68 250.545 1124.3 250.022C1124.6 249.756 1124.93 249.558 1125.29 249.43C1125.67 249.292 1126.07 249.222 1126.49 249.222C1127.16 249.222 1127.72 249.361 1128.19 249.638C1128.67 249.916 1129.05 250.289 1129.33 250.758C1129.46 250.993 1129.57 251.238 1129.65 251.494C1129.73 251.75 1129.8 252.017 1129.84 252.294H1128.61C1128.5 251.686 1128.25 251.217 1127.87 250.886C1127.5 250.556 1127.03 250.39 1126.48 250.39C1125.98 250.39 1125.52 250.556 1125.1 250.886C1124.69 251.206 1124.35 251.718 1124.09 252.422C1123.84 253.116 1123.7 254.028 1123.68 255.158C1123.92 254.657 1124.3 254.246 1124.8 253.926C1125.3 253.606 1125.92 253.446 1126.67 253.446C1127.28 253.446 1127.84 253.596 1128.37 253.894C1128.9 254.193 1129.33 254.614 1129.66 255.158C1129.99 255.702 1130.16 256.332 1130.16 257.046C1130.16 257.676 1130.01 258.278 1129.71 258.854C1129.42 259.43 1129 259.9 1128.45 260.262C1127.91 260.625 1127.27 260.806 1126.51 260.806ZM1126.43 259.622C1126.93 259.622 1127.36 259.51 1127.71 259.286C1128.06 259.052 1128.33 258.742 1128.51 258.358C1128.7 257.974 1128.8 257.558 1128.8 257.11C1128.8 256.353 1128.57 255.75 1128.11 255.302C1127.66 254.844 1127.1 254.614 1126.43 254.614C1125.96 254.614 1125.54 254.732 1125.18 254.966C1124.82 255.201 1124.54 255.51 1124.33 255.894C1124.14 256.268 1124.05 256.678 1124.05 257.126C1124.05 257.596 1124.14 258.022 1124.33 258.406C1124.54 258.78 1124.82 259.078 1125.18 259.302C1125.54 259.516 1125.96 259.622 1126.43 259.622ZM1135.83 260.806C1134.81 260.806 1133.99 260.55 1133.37 260.038C1132.75 259.526 1132.3 258.833 1132.02 257.958C1131.75 257.084 1131.61 256.102 1131.61 255.014C1131.61 253.926 1131.75 252.945 1132.02 252.07C1132.3 251.196 1132.75 250.502 1133.37 249.99C1133.99 249.478 1134.81 249.222 1135.83 249.222C1136.86 249.222 1137.67 249.473 1138.28 249.974C1138.9 250.476 1139.35 251.164 1139.62 252.038C1139.9 252.913 1140.04 253.905 1140.04 255.014C1140.04 256.124 1139.9 257.116 1139.62 257.99C1139.35 258.865 1138.9 259.553 1138.28 260.054C1137.67 260.556 1136.86 260.806 1135.83 260.806ZM1135.83 259.606C1136.81 259.606 1137.53 259.196 1137.98 258.374C1138.43 257.553 1138.66 256.433 1138.66 255.014C1138.66 253.596 1138.43 252.476 1137.98 251.654C1137.53 250.833 1136.81 250.422 1135.83 250.422C1134.86 250.422 1134.14 250.833 1133.67 251.654C1133.21 252.476 1132.98 253.596 1132.98 255.014C1132.98 256.433 1133.21 257.553 1133.67 258.374C1134.14 259.196 1134.86 259.606 1135.83 259.606ZM1140.64 262.518L1141.57 258.982H1142.96L1141.57 262.518H1140.64ZM1148.27 260.806C1147.25 260.806 1146.42 260.55 1145.81 260.038C1145.19 259.526 1144.74 258.833 1144.46 257.958C1144.18 257.084 1144.05 256.102 1144.05 255.014C1144.05 253.926 1144.18 252.945 1144.46 252.07C1144.74 251.196 1145.19 250.502 1145.81 249.99C1146.42 249.478 1147.25 249.222 1148.27 249.222C1149.29 249.222 1150.11 249.473 1150.72 249.974C1151.34 250.476 1151.78 251.164 1152.06 252.038C1152.34 252.913 1152.48 253.905 1152.48 255.014C1152.48 256.124 1152.34 257.116 1152.06 257.99C1151.78 258.865 1151.34 259.553 1150.72 260.054C1150.11 260.556 1149.29 260.806 1148.27 260.806ZM1148.27 259.606C1149.25 259.606 1149.97 259.196 1150.41 258.374C1150.87 257.553 1151.1 256.433 1151.1 255.014C1151.1 253.596 1150.87 252.476 1150.41 251.654C1149.97 250.833 1149.25 250.422 1148.27 250.422C1147.3 250.422 1146.58 250.833 1146.11 251.654C1145.65 252.476 1145.42 253.596 1145.42 255.014C1145.42 256.433 1145.65 257.553 1146.11 258.374C1146.58 259.196 1147.3 259.606 1148.27 259.606ZM1157.86 260.806C1156.84 260.806 1156.02 260.55 1155.4 260.038C1154.78 259.526 1154.33 258.833 1154.05 257.958C1153.78 257.084 1153.64 256.102 1153.64 255.014C1153.64 253.926 1153.78 252.945 1154.05 252.07C1154.33 251.196 1154.78 250.502 1155.4 249.99C1156.02 249.478 1156.84 249.222 1157.86 249.222C1158.89 249.222 1159.7 249.473 1160.31 249.974C1160.93 250.476 1161.38 251.164 1161.65 252.038C1161.93 252.913 1162.07 253.905 1162.07 255.014C1162.07 256.124 1161.93 257.116 1161.65 257.99C1161.38 258.865 1160.93 259.553 1160.31 260.054C1159.7 260.556 1158.89 260.806 1157.86 260.806ZM1157.86 259.606C1158.84 259.606 1159.56 259.196 1160.01 258.374C1160.47 257.553 1160.69 256.433 1160.69 255.014C1160.69 253.596 1160.47 252.476 1160.01 251.654C1159.56 250.833 1158.84 250.422 1157.86 250.422C1156.89 250.422 1156.17 250.833 1155.7 251.654C1155.24 252.476 1155.01 253.596 1155.01 255.014C1155.01 256.433 1155.24 257.553 1155.7 258.374C1156.17 259.196 1156.89 259.606 1157.86 259.606ZM1167.46 260.806C1166.43 260.806 1165.61 260.55 1164.99 260.038C1164.37 259.526 1163.93 258.833 1163.65 257.958C1163.37 257.084 1163.23 256.102 1163.23 255.014C1163.23 253.926 1163.37 252.945 1163.65 252.07C1163.93 251.196 1164.37 250.502 1164.99 249.99C1165.61 249.478 1166.43 249.222 1167.46 249.222C1168.48 249.222 1169.3 249.473 1169.9 249.974C1170.52 250.476 1170.97 251.164 1171.25 252.038C1171.53 252.913 1171.66 253.905 1171.66 255.014C1171.66 256.124 1171.53 257.116 1171.25 257.99C1170.97 258.865 1170.52 259.553 1169.9 260.054C1169.3 260.556 1168.48 260.806 1167.46 260.806ZM1167.46 259.606C1168.44 259.606 1169.15 259.196 1169.6 258.374C1170.06 257.553 1170.29 256.433 1170.29 255.014C1170.29 253.596 1170.06 252.476 1169.6 251.654C1169.15 250.833 1168.44 250.422 1167.46 250.422C1166.49 250.422 1165.77 250.833 1165.3 251.654C1164.84 252.476 1164.61 253.596 1164.61 255.014C1164.61 256.433 1164.84 257.553 1165.3 258.374C1165.77 259.196 1166.49 259.606 1167.46 259.606Z" fill="black" fill-opacity="0.8"/>
<path d="M936.096 280.578C934.965 280.578 934 280.327 933.2 279.826C932.4 279.314 931.792 278.62 931.376 277.746C930.96 276.871 930.752 275.884 930.752 274.786C930.752 273.698 930.955 272.716 931.36 271.842C931.776 270.967 932.384 270.274 933.184 269.762C933.984 269.25 934.955 268.994 936.096 268.994C937.376 268.994 938.416 269.303 939.216 269.922C940.027 270.53 940.544 271.383 940.768 272.482H939.28C939.109 271.788 938.757 271.234 938.224 270.818C937.701 270.391 936.992 270.178 936.096 270.178C935.211 270.178 934.475 270.386 933.888 270.802C933.301 271.207 932.859 271.756 932.56 272.45C932.272 273.143 932.128 273.922 932.128 274.786C932.128 275.671 932.277 276.46 932.576 277.154C932.885 277.847 933.333 278.396 933.92 278.802C934.507 279.196 935.232 279.394 936.096 279.394C936.992 279.394 937.701 279.191 938.224 278.786C938.757 278.37 939.109 277.82 939.28 277.138H940.768C940.544 278.215 940.027 279.058 939.216 279.666C938.416 280.274 937.376 280.578 936.096 280.578ZM946.284 280.578C945.558 280.578 944.892 280.418 944.284 280.098C943.676 279.767 943.19 279.292 942.828 278.674C942.465 278.044 942.284 277.287 942.284 276.402C942.284 275.559 942.46 274.828 942.812 274.21C943.174 273.591 943.66 273.111 944.268 272.77C944.886 272.428 945.58 272.258 946.348 272.258C947.084 272.258 947.756 272.418 948.364 272.738C948.982 273.058 949.478 273.527 949.852 274.146C950.225 274.764 950.412 275.516 950.412 276.402C950.412 277.212 950.236 277.932 949.884 278.562C949.532 279.191 949.041 279.687 948.412 280.05C947.793 280.402 947.084 280.578 946.284 280.578ZM946.284 279.41C946.806 279.41 947.276 279.287 947.692 279.042C948.108 278.786 948.438 278.434 948.684 277.986C948.929 277.538 949.052 277.01 949.052 276.402C949.052 275.826 948.945 275.314 948.732 274.866C948.518 274.418 948.209 274.066 947.804 273.81C947.398 273.554 946.908 273.426 946.332 273.426C945.745 273.426 945.249 273.559 944.844 273.826C944.449 274.092 944.15 274.45 943.948 274.898C943.745 275.346 943.644 275.847 943.644 276.402C943.644 277.106 943.772 277.682 944.028 278.13C944.284 278.567 944.614 278.892 945.02 279.106C945.425 279.308 945.846 279.41 946.284 279.41ZM952.276 280.386V272.45H953.492L953.588 273.602C953.844 273.175 954.185 272.844 954.612 272.61C955.039 272.375 955.519 272.258 956.052 272.258C956.681 272.258 957.22 272.386 957.668 272.642C958.127 272.898 958.479 273.287 958.724 273.81C959.001 273.33 959.38 272.951 959.86 272.674C960.351 272.396 960.879 272.258 961.444 272.258C962.084 272.258 962.633 272.386 963.092 272.642C963.561 272.887 963.924 273.271 964.18 273.794C964.436 274.306 964.564 274.956 964.564 275.746V280.386H963.236V275.89C963.236 275.068 963.071 274.45 962.74 274.034C962.409 273.618 961.935 273.41 961.316 273.41C960.676 273.41 960.143 273.66 959.716 274.162C959.3 274.652 959.092 275.356 959.092 276.274V280.386H957.748V275.89C957.748 275.068 957.583 274.45 957.252 274.034C956.921 273.618 956.447 273.41 955.828 273.41C955.199 273.41 954.671 273.66 954.244 274.162C953.828 274.652 953.62 275.356 953.62 276.274V280.386H952.276ZM966.588 280.386V272.45H967.804L967.9 273.602C968.156 273.175 968.498 272.844 968.924 272.61C969.351 272.375 969.831 272.258 970.364 272.258C970.994 272.258 971.532 272.386 971.98 272.642C972.439 272.898 972.791 273.287 973.036 273.81C973.314 273.33 973.692 272.951 974.172 272.674C974.663 272.396 975.191 272.258 975.756 272.258C976.396 272.258 976.946 272.386 977.404 272.642C977.874 272.887 978.236 273.271 978.492 273.794C978.748 274.306 978.876 274.956 978.876 275.746V280.386H977.548V275.89C977.548 275.068 977.383 274.45 977.052 274.034C976.722 273.618 976.247 273.41 975.628 273.41C974.988 273.41 974.455 273.66 974.028 274.162C973.612 274.652 973.404 275.356 973.404 276.274V280.386H972.06V275.89C972.06 275.068 971.895 274.45 971.564 274.034C971.234 273.618 970.759 273.41 970.14 273.41C969.511 273.41 968.983 273.66 968.556 274.162C968.14 274.652 967.932 275.356 967.932 276.274V280.386H966.588ZM981.717 270.69C981.45 270.69 981.226 270.604 981.045 270.434C980.874 270.252 980.789 270.028 980.789 269.762C980.789 269.506 980.874 269.292 981.045 269.122C981.226 268.951 981.45 268.866 981.717 268.866C981.973 268.866 982.192 268.951 982.373 269.122C982.554 269.292 982.645 269.506 982.645 269.762C982.645 270.028 982.554 270.252 982.373 270.434C982.192 270.604 981.973 270.69 981.717 270.69ZM981.045 280.386V272.45H982.389V280.386H981.045ZM987.769 280.578C987.14 280.578 986.574 280.471 986.073 280.258C985.572 280.034 985.166 279.724 984.857 279.33C984.558 278.924 984.372 278.45 984.297 277.906H985.673C985.758 278.322 985.977 278.684 986.329 278.994C986.692 279.292 987.177 279.442 987.785 279.442C988.35 279.442 988.766 279.324 989.033 279.09C989.3 278.844 989.433 278.556 989.433 278.226C989.433 277.906 989.353 277.66 989.193 277.49C989.044 277.319 988.82 277.191 988.521 277.106C988.233 277.01 987.876 276.919 987.449 276.834C987.001 276.738 986.564 276.61 986.137 276.45C985.71 276.279 985.358 276.05 985.081 275.762C984.804 275.474 984.665 275.095 984.665 274.626C984.665 274.156 984.782 273.746 985.017 273.394C985.252 273.042 985.582 272.764 986.009 272.562C986.446 272.359 986.958 272.258 987.545 272.258C988.388 272.258 989.076 272.471 989.609 272.898C990.153 273.314 990.468 273.911 990.553 274.69H989.225C989.172 274.284 988.996 273.97 988.697 273.746C988.409 273.511 988.02 273.394 987.529 273.394C987.049 273.394 986.676 273.495 986.409 273.698C986.153 273.9 986.025 274.167 986.025 274.498C986.025 274.711 986.1 274.892 986.249 275.042C986.398 275.191 986.612 275.319 986.889 275.426C987.177 275.532 987.513 275.628 987.897 275.714C988.43 275.82 988.916 275.954 989.353 276.114C989.79 276.274 990.142 276.508 990.409 276.818C990.676 277.116 990.809 277.548 990.809 278.114C990.82 278.583 990.697 279.004 990.441 279.378C990.196 279.751 989.844 280.044 989.385 280.258C988.937 280.471 988.398 280.578 987.769 280.578ZM995.769 280.578C995.14 280.578 994.574 280.471 994.073 280.258C993.572 280.034 993.166 279.724 992.857 279.33C992.558 278.924 992.372 278.45 992.297 277.906H993.673C993.758 278.322 993.977 278.684 994.329 278.994C994.692 279.292 995.177 279.442 995.785 279.442C996.35 279.442 996.766 279.324 997.033 279.09C997.3 278.844 997.433 278.556 997.433 278.226C997.433 277.906 997.353 277.66 997.193 277.49C997.044 277.319 996.82 277.191 996.521 277.106C996.233 277.01 995.876 276.919 995.449 276.834C995.001 276.738 994.564 276.61 994.137 276.45C993.71 276.279 993.358 276.05 993.081 275.762C992.804 275.474 992.665 275.095 992.665 274.626C992.665 274.156 992.782 273.746 993.017 273.394C993.252 273.042 993.582 272.764 994.009 272.562C994.446 272.359 994.958 272.258 995.545 272.258C996.388 272.258 997.076 272.471 997.609 272.898C998.153 273.314 998.468 273.911 998.553 274.69H997.225C997.172 274.284 996.996 273.97 996.697 273.746C996.409 273.511 996.02 273.394 995.529 273.394C995.049 273.394 994.676 273.495 994.409 273.698C994.153 273.9 994.025 274.167 994.025 274.498C994.025 274.711 994.1 274.892 994.249 275.042C994.398 275.191 994.612 275.319 994.889 275.426C995.177 275.532 995.513 275.628 995.897 275.714C996.43 275.82 996.916 275.954 997.353 276.114C997.79 276.274 998.142 276.508 998.409 276.818C998.676 277.116 998.809 277.548 998.809 278.114C998.82 278.583 998.697 279.004 998.441 279.378C998.196 279.751 997.844 280.044 997.385 280.258C996.937 280.471 996.398 280.578 995.769 280.578ZM1001.55 270.69C1001.28 270.69 1001.05 270.604 1000.87 270.434C1000.7 270.252 1000.62 270.028 1000.62 269.762C1000.62 269.506 1000.7 269.292 1000.87 269.122C1001.05 268.951 1001.28 268.866 1001.55 268.866C1001.8 268.866 1002.02 268.951 1002.2 269.122C1002.38 269.292 1002.47 269.506 1002.47 269.762C1002.47 270.028 1002.38 270.252 1002.2 270.434C1002.02 270.604 1001.8 270.69 1001.55 270.69ZM1000.87 280.386V272.45H1002.22V280.386H1000.87ZM1008.22 280.578C1007.5 280.578 1006.83 280.418 1006.22 280.098C1005.61 279.767 1005.13 279.292 1004.77 278.674C1004.4 278.044 1004.22 277.287 1004.22 276.402C1004.22 275.559 1004.4 274.828 1004.75 274.21C1005.11 273.591 1005.6 273.111 1006.21 272.77C1006.82 272.428 1007.52 272.258 1008.29 272.258C1009.02 272.258 1009.69 272.418 1010.3 272.738C1010.92 273.058 1011.42 273.527 1011.79 274.146C1012.16 274.764 1012.35 275.516 1012.35 276.402C1012.35 277.212 1012.17 277.932 1011.82 278.562C1011.47 279.191 1010.98 279.687 1010.35 280.05C1009.73 280.402 1009.02 280.578 1008.22 280.578ZM1008.22 279.41C1008.74 279.41 1009.21 279.287 1009.63 279.042C1010.05 278.786 1010.38 278.434 1010.62 277.986C1010.87 277.538 1010.99 277.01 1010.99 276.402C1010.99 275.826 1010.88 275.314 1010.67 274.866C1010.46 274.418 1010.15 274.066 1009.74 273.81C1009.34 273.554 1008.85 273.426 1008.27 273.426C1007.68 273.426 1007.19 273.559 1006.78 273.826C1006.39 274.092 1006.09 274.45 1005.89 274.898C1005.68 275.346 1005.58 275.847 1005.58 276.402C1005.58 277.106 1005.71 277.682 1005.97 278.13C1006.22 278.567 1006.55 278.892 1006.96 279.106C1007.36 279.308 1007.78 279.41 1008.22 279.41ZM1014.21 280.386V272.45H1015.43L1015.51 273.874C1015.77 273.372 1016.13 272.978 1016.61 272.69C1017.09 272.402 1017.64 272.258 1018.25 272.258C1019.18 272.258 1019.93 272.546 1020.49 273.122C1021.05 273.687 1021.33 274.562 1021.33 275.746V280.386H1019.99V275.89C1019.99 275.068 1019.82 274.45 1019.48 274.034C1019.14 273.618 1018.62 273.41 1017.94 273.41C1017.26 273.41 1016.69 273.66 1016.23 274.162C1015.78 274.652 1015.56 275.356 1015.56 276.274V280.386H1014.21ZM1027.7 281.986V268.866H1029.04V281.986H1027.7ZM1035.65 280.386V269.186H1042.47V270.29H1037V274.066H1041.65V275.154H1037V280.386H1035.65ZM1046.98 280.386V276.13L1043.34 269.186H1044.86L1047.66 274.85L1050.46 269.186H1051.96L1048.33 276.13V280.386H1046.98ZM1057.68 280.386V279.218C1057.68 279.218 1057.76 279.132 1057.92 278.962C1058.09 278.78 1058.32 278.551 1058.6 278.274C1058.87 277.996 1059.17 277.692 1059.48 277.362C1059.8 277.031 1060.11 276.706 1060.42 276.386C1060.73 276.066 1061 275.783 1061.24 275.538C1061.63 275.132 1061.98 274.754 1062.29 274.402C1062.61 274.05 1062.87 273.708 1063.06 273.378C1063.25 273.047 1063.35 272.716 1063.35 272.386C1063.35 271.724 1063.18 271.186 1062.85 270.77C1062.53 270.354 1062.01 270.146 1061.28 270.146C1060.82 270.146 1060.42 270.252 1060.08 270.466C1059.75 270.668 1059.5 270.946 1059.32 271.298C1059.14 271.65 1059.06 272.055 1059.06 272.514H1057.76C1057.76 271.799 1057.91 271.18 1058.2 270.658C1058.49 270.135 1058.91 269.73 1059.44 269.442C1059.98 269.143 1060.6 268.994 1061.3 268.994C1061.99 268.994 1062.59 269.122 1063.09 269.378C1063.6 269.623 1064 269.996 1064.28 270.498C1064.55 270.988 1064.69 271.602 1064.69 272.338C1064.69 272.839 1064.57 273.308 1064.32 273.746C1064.08 274.183 1063.78 274.583 1063.44 274.946C1063.1 275.308 1062.79 275.639 1062.5 275.938C1062.33 276.108 1062.1 276.332 1061.83 276.61C1061.56 276.887 1061.28 277.18 1060.98 277.49C1060.69 277.788 1060.41 278.076 1060.15 278.354C1059.89 278.62 1059.68 278.839 1059.51 279.01C1059.35 279.18 1059.27 279.266 1059.27 279.266H1065.08V280.386H1057.68ZM1071.01 280.578C1070.29 280.578 1069.65 280.45 1069.07 280.194C1068.5 279.927 1068.05 279.554 1067.69 279.074C1067.34 278.583 1067.12 278.012 1067.04 277.362H1068.35C1068.48 277.98 1068.78 278.482 1069.25 278.866C1069.71 279.239 1070.31 279.426 1071.02 279.426C1071.55 279.426 1072.01 279.303 1072.4 279.058C1072.78 278.812 1073.07 278.476 1073.28 278.05C1073.49 277.623 1073.6 277.143 1073.6 276.61C1073.6 275.778 1073.36 275.106 1072.89 274.594C1072.42 274.082 1071.82 273.826 1071.07 273.826C1070.45 273.826 1069.92 273.964 1069.49 274.242C1069.05 274.519 1068.73 274.882 1068.53 275.33H1067.25L1068.21 269.186H1074.08V270.354H1069.25L1068.59 273.762C1068.85 273.452 1069.2 273.196 1069.65 272.994C1070.1 272.791 1070.63 272.69 1071.21 272.69C1071.95 272.69 1072.59 272.86 1073.13 273.202C1073.69 273.543 1074.12 274.007 1074.43 274.594C1074.58 274.892 1074.69 275.207 1074.77 275.538C1074.85 275.868 1074.89 276.22 1074.89 276.594C1074.89 277.372 1074.73 278.06 1074.4 278.658C1074.08 279.255 1073.62 279.724 1073.04 280.066C1072.46 280.407 1071.78 280.578 1071.01 280.578ZM1076.65 276.306V275.17H1082.98V276.306H1076.65ZM1085.07 280.386V279.218C1085.07 279.218 1085.15 279.132 1085.31 278.962C1085.48 278.78 1085.71 278.551 1085.99 278.274C1086.26 277.996 1086.56 277.692 1086.87 277.362C1087.19 277.031 1087.5 276.706 1087.81 276.386C1088.12 276.066 1088.39 275.783 1088.63 275.538C1089.02 275.132 1089.37 274.754 1089.68 274.402C1090 274.05 1090.26 273.708 1090.45 273.378C1090.64 273.047 1090.74 272.716 1090.74 272.386C1090.74 271.724 1090.57 271.186 1090.24 270.77C1089.92 270.354 1089.4 270.146 1088.67 270.146C1088.22 270.146 1087.82 270.252 1087.47 270.466C1087.14 270.668 1086.89 270.946 1086.71 271.298C1086.54 271.65 1086.45 272.055 1086.45 272.514H1085.15C1085.15 271.799 1085.3 271.18 1085.59 270.658C1085.88 270.135 1086.3 269.73 1086.83 269.442C1087.37 269.143 1087.99 268.994 1088.69 268.994C1089.38 268.994 1089.98 269.122 1090.48 269.378C1090.99 269.623 1091.39 269.996 1091.67 270.498C1091.94 270.988 1092.08 271.602 1092.08 272.338C1092.08 272.839 1091.96 273.308 1091.71 273.746C1091.47 274.183 1091.18 274.583 1090.83 274.946C1090.49 275.308 1090.18 275.639 1089.89 275.938C1089.72 276.108 1089.5 276.332 1089.22 276.61C1088.95 276.887 1088.67 277.18 1088.37 277.49C1088.08 277.788 1087.8 278.076 1087.54 278.354C1087.28 278.62 1087.07 278.839 1086.9 279.01C1086.74 279.18 1086.66 279.266 1086.66 279.266H1092.47V280.386H1085.07ZM1098.59 280.578C1097.83 280.578 1097.19 280.428 1096.65 280.13C1096.13 279.82 1095.71 279.41 1095.39 278.898C1095.08 278.386 1094.85 277.815 1094.7 277.186C1094.56 276.546 1094.49 275.895 1094.49 275.234C1094.49 273.996 1094.65 272.914 1094.97 271.986C1095.29 271.047 1095.76 270.316 1096.38 269.794C1096.68 269.527 1097.01 269.33 1097.37 269.202C1097.75 269.063 1098.15 268.994 1098.57 268.994C1099.23 268.994 1099.8 269.132 1100.27 269.41C1100.75 269.687 1101.13 270.06 1101.4 270.53C1101.54 270.764 1101.65 271.01 1101.72 271.266C1101.81 271.522 1101.87 271.788 1101.92 272.066H1100.68C1100.58 271.458 1100.33 270.988 1099.95 270.658C1099.57 270.327 1099.11 270.162 1098.56 270.162C1098.05 270.162 1097.6 270.327 1097.18 270.658C1096.76 270.978 1096.43 271.49 1096.17 272.194C1095.92 272.887 1095.78 273.799 1095.76 274.93C1096 274.428 1096.37 274.018 1096.88 273.698C1097.38 273.378 1098 273.218 1098.75 273.218C1099.36 273.218 1099.92 273.367 1100.44 273.666C1100.98 273.964 1101.41 274.386 1101.74 274.93C1102.07 275.474 1102.24 276.103 1102.24 276.818C1102.24 277.447 1102.09 278.05 1101.79 278.626C1101.5 279.202 1101.08 279.671 1100.52 280.034C1099.99 280.396 1099.35 280.578 1098.59 280.578ZM1098.51 279.394C1099.01 279.394 1099.44 279.282 1099.79 279.058C1100.14 278.823 1100.41 278.514 1100.59 278.13C1100.78 277.746 1100.88 277.33 1100.88 276.882C1100.88 276.124 1100.65 275.522 1100.19 275.074C1099.74 274.615 1099.18 274.386 1098.51 274.386C1098.04 274.386 1097.62 274.503 1097.26 274.738C1096.9 274.972 1096.61 275.282 1096.41 275.666C1096.22 276.039 1096.12 276.45 1096.12 276.898C1096.12 277.367 1096.22 277.794 1096.41 278.178C1096.61 278.551 1096.9 278.85 1097.26 279.074C1097.62 279.287 1098.04 279.394 1098.51 279.394ZM1104.66 274.082C1104.4 274.082 1104.17 273.996 1103.99 273.826C1103.82 273.644 1103.73 273.426 1103.73 273.17C1103.73 272.914 1103.82 272.7 1103.99 272.53C1104.17 272.348 1104.4 272.258 1104.66 272.258C1104.92 272.258 1105.13 272.348 1105.3 272.53C1105.48 272.7 1105.57 272.914 1105.57 273.17C1105.57 273.426 1105.48 273.644 1105.3 273.826C1105.13 273.996 1104.92 274.082 1104.66 274.082ZM1104.66 280.466C1104.4 280.466 1104.17 280.38 1103.99 280.21C1103.82 280.028 1103.73 279.81 1103.73 279.554C1103.73 279.298 1103.82 279.084 1103.99 278.914C1104.17 278.732 1104.4 278.642 1104.66 278.642C1104.92 278.642 1105.13 278.732 1105.3 278.914C1105.48 279.084 1105.57 279.298 1105.57 279.554C1105.57 279.81 1105.48 280.028 1105.3 280.21C1105.13 280.38 1104.92 280.466 1104.66 280.466ZM1111.7 280.386V269.186H1113.04V280.386H1111.7ZM1115.42 280.386V269.186H1116.76L1122.73 278.162V269.186H1124.07V280.386H1122.73L1116.76 271.41V280.386H1115.42ZM1126.45 280.386V269.186H1129.76C1130.55 269.186 1131.22 269.303 1131.78 269.538C1132.33 269.762 1132.76 270.103 1133.06 270.562C1133.36 271.02 1133.51 271.602 1133.51 272.306C1133.51 273.18 1133.28 273.842 1132.82 274.29C1132.37 274.738 1131.76 275.031 1130.98 275.17L1134.19 280.386H1132.53L1129.65 275.426H1127.79V280.386H1126.45ZM1127.79 274.29H1129.73C1130.33 274.29 1130.8 274.22 1131.15 274.082C1131.51 273.932 1131.76 273.708 1131.91 273.41C1132.05 273.111 1132.13 272.743 1132.13 272.306C1132.13 271.858 1132.05 271.484 1131.91 271.186C1131.76 270.887 1131.51 270.668 1131.15 270.53C1130.8 270.38 1130.33 270.306 1129.73 270.306H1127.79V274.29ZM1145.16 280.386V277.986H1139.66V276.946L1143.54 269.186H1144.87L1141.08 276.802H1145.22V273.618H1146.49V276.802H1148.12V277.986H1146.49V280.386H1145.16ZM1153.43 280.578C1152.69 280.578 1152.04 280.45 1151.47 280.194C1150.91 279.927 1150.45 279.554 1150.1 279.074C1149.76 278.583 1149.55 278.007 1149.47 277.346H1150.77C1150.91 277.932 1151.2 278.428 1151.63 278.834C1152.07 279.228 1152.67 279.426 1153.43 279.426C1154.25 279.426 1154.88 279.196 1155.31 278.738C1155.76 278.279 1155.99 277.698 1155.99 276.994C1155.99 276.236 1155.75 275.66 1155.28 275.266C1154.82 274.871 1154.21 274.674 1153.44 274.674C1153.24 274.674 1153.04 274.7 1152.83 274.754C1152.63 274.807 1152.43 274.892 1152.24 275.01L1151.41 274.066L1155.27 270.29H1149.94V269.186H1156.91V270.242L1153.43 273.682C1153.91 273.628 1154.38 273.666 1154.83 273.794C1155.29 273.911 1155.7 274.108 1156.07 274.386C1156.44 274.663 1156.73 275.02 1156.95 275.458C1157.17 275.895 1157.28 276.402 1157.28 276.978C1157.28 277.735 1157.12 278.386 1156.79 278.93C1156.47 279.463 1156.02 279.874 1155.44 280.162C1154.87 280.439 1154.19 280.578 1153.43 280.578ZM1158.2 282.29L1159.13 278.754H1160.52L1159.13 282.29H1158.2ZM1163.64 280.386L1168.39 270.338H1161.9V269.186H1169.77V270.194L1165.06 280.386H1163.64ZM1175.7 280.578C1174.94 280.578 1174.29 280.428 1173.76 280.13C1173.24 279.82 1172.82 279.41 1172.5 278.898C1172.19 278.386 1171.96 277.815 1171.81 277.186C1171.67 276.546 1171.6 275.895 1171.6 275.234C1171.6 273.996 1171.76 272.914 1172.08 271.986C1172.4 271.047 1172.87 270.316 1173.49 269.794C1173.79 269.527 1174.12 269.33 1174.48 269.202C1174.85 269.063 1175.25 268.994 1175.68 268.994C1176.34 268.994 1176.91 269.132 1177.38 269.41C1177.86 269.687 1178.24 270.06 1178.51 270.53C1178.65 270.764 1178.76 271.01 1178.83 271.266C1178.92 271.522 1178.98 271.788 1179.03 272.066H1177.79C1177.69 271.458 1177.44 270.988 1177.06 270.658C1176.68 270.327 1176.22 270.162 1175.67 270.162C1175.16 270.162 1174.71 270.327 1174.29 270.658C1173.87 270.978 1173.54 271.49 1173.28 272.194C1173.03 272.887 1172.89 273.799 1172.87 274.93C1173.11 274.428 1173.48 274.018 1173.99 273.698C1174.49 273.378 1175.11 273.218 1175.86 273.218C1176.47 273.218 1177.03 273.367 1177.55 273.666C1178.09 273.964 1178.52 274.386 1178.85 274.93C1179.18 275.474 1179.35 276.103 1179.35 276.818C1179.35 277.447 1179.2 278.05 1178.9 278.626C1178.61 279.202 1178.19 279.671 1177.63 280.034C1177.1 280.396 1176.45 280.578 1175.7 280.578ZM1175.62 279.394C1176.12 279.394 1176.55 279.282 1176.9 279.058C1177.25 278.823 1177.52 278.514 1177.7 278.13C1177.89 277.746 1177.99 277.33 1177.99 276.882C1177.99 276.124 1177.76 275.522 1177.3 275.074C1176.85 274.615 1176.29 274.386 1175.62 274.386C1175.15 274.386 1174.73 274.503 1174.37 274.738C1174.01 274.972 1173.72 275.282 1173.52 275.666C1173.33 276.039 1173.23 276.45 1173.23 276.898C1173.23 277.367 1173.33 277.794 1173.52 278.178C1173.72 278.551 1174.01 278.85 1174.37 279.074C1174.73 279.287 1175.15 279.394 1175.62 279.394ZM1185.02 280.578C1184 280.578 1183.17 280.322 1182.56 279.81C1181.94 279.298 1181.49 278.604 1181.21 277.73C1180.93 276.855 1180.8 275.874 1180.8 274.786C1180.8 273.698 1180.93 272.716 1181.21 271.842C1181.49 270.967 1181.94 270.274 1182.56 269.762C1183.17 269.25 1184 268.994 1185.02 268.994C1186.04 268.994 1186.86 269.244 1187.47 269.746C1188.09 270.247 1188.53 270.935 1188.81 271.81C1189.09 272.684 1189.23 273.676 1189.23 274.786C1189.23 275.895 1189.09 276.887 1188.81 277.762C1188.53 278.636 1188.09 279.324 1187.47 279.826C1186.86 280.327 1186.04 280.578 1185.02 280.578ZM1185.02 279.378C1186 279.378 1186.72 278.967 1187.16 278.146C1187.62 277.324 1187.85 276.204 1187.85 274.786C1187.85 273.367 1187.62 272.247 1187.16 271.426C1186.72 270.604 1186 270.194 1185.02 270.194C1184.05 270.194 1183.33 270.604 1182.86 271.426C1182.4 272.247 1182.17 273.367 1182.17 274.786C1182.17 276.204 1182.4 277.324 1182.86 278.146C1183.33 278.967 1184.05 279.378 1185.02 279.378Z" fill="black" fill-opacity="0.8"/>
<path d="M903.223 242.651L903.223 287.349" stroke="black" stroke-width="0.730968" stroke-linecap="round"/>
<path d="M903.223 264.733H888.334L877.004 303.758" stroke="black" stroke-width="0.730968"/>
<rect width="292" height="62.7716" transform="matrix(-1 0 0 1 1145 112.726)" fill="#EFEFEF" fill-opacity="0.92"/>
<path d="M887.95 139.726V128.526H891.262C892.051 128.526 892.723 128.643 893.278 128.878C893.832 129.102 894.259 129.443 894.558 129.902C894.856 130.36 895.006 130.942 895.006 131.646C895.006 132.52 894.776 133.182 894.318 133.63C893.87 134.078 893.256 134.371 892.478 134.51L895.694 139.726H894.03L891.15 134.766H889.294V139.726H887.95ZM889.294 133.63H891.23C891.827 133.63 892.302 133.56 892.654 133.422C893.006 133.272 893.256 133.048 893.406 132.75C893.555 132.451 893.63 132.083 893.63 131.646C893.63 131.198 893.555 130.824 893.406 130.526C893.256 130.227 893.006 130.008 892.654 129.87C892.302 129.72 891.827 129.646 891.23 129.646H889.294V133.63ZM900.438 139.918C899.702 139.918 899.035 139.747 898.438 139.406C897.851 139.064 897.387 138.584 897.046 137.966C896.704 137.336 896.534 136.6 896.534 135.758C896.534 134.926 896.694 134.2 897.014 133.582C897.344 132.952 897.803 132.467 898.39 132.126C898.987 131.774 899.68 131.598 900.47 131.598C901.216 131.598 901.867 131.763 902.422 132.094C902.976 132.424 903.408 132.872 903.718 133.438C904.038 133.992 904.198 134.616 904.198 135.31C904.198 135.459 904.198 135.576 904.198 135.662C904.198 135.747 904.192 135.88 904.182 136.062H897.862C897.894 136.584 898.016 137.054 898.23 137.47C898.454 137.875 898.752 138.195 899.126 138.43C899.51 138.664 899.947 138.782 900.438 138.782C900.992 138.782 901.456 138.654 901.83 138.398C902.203 138.142 902.475 137.795 902.646 137.358H903.974C903.835 137.848 903.606 138.286 903.286 138.67C902.966 139.054 902.566 139.358 902.086 139.582C901.616 139.806 901.067 139.918 900.438 139.918ZM897.878 135.022H902.87C902.838 134.307 902.592 133.747 902.134 133.342C901.675 132.936 901.11 132.734 900.438 132.734C899.798 132.734 899.227 132.931 898.726 133.326C898.235 133.71 897.952 134.275 897.878 135.022ZM907.955 139.726L904.947 131.79H906.355L908.739 138.43L911.139 131.79H912.515L909.507 139.726H907.955ZM917.172 139.918C916.436 139.918 915.769 139.747 915.172 139.406C914.585 139.064 914.121 138.584 913.78 137.966C913.439 137.336 913.268 136.6 913.268 135.758C913.268 134.926 913.428 134.2 913.748 133.582C914.079 132.952 914.537 132.467 915.124 132.126C915.721 131.774 916.415 131.598 917.204 131.598C917.951 131.598 918.601 131.763 919.156 132.094C919.711 132.424 920.143 132.872 920.452 133.438C920.772 133.992 920.932 134.616 920.932 135.31C920.932 135.459 920.932 135.576 920.932 135.662C920.932 135.747 920.927 135.88 920.916 136.062H914.596C914.628 136.584 914.751 137.054 914.964 137.47C915.188 137.875 915.487 138.195 915.86 138.43C916.244 138.664 916.681 138.782 917.172 138.782C917.727 138.782 918.191 138.654 918.564 138.398C918.937 138.142 919.209 137.795 919.38 137.358H920.708C920.569 137.848 920.34 138.286 920.02 138.67C919.7 139.054 919.3 139.358 918.82 139.582C918.351 139.806 917.801 139.918 917.172 139.918ZM914.612 135.022H919.604C919.572 134.307 919.327 133.747 918.868 133.342C918.409 132.936 917.844 132.734 917.172 132.734C916.532 132.734 915.961 132.931 915.46 133.326C914.969 133.71 914.687 134.275 914.612 135.022ZM922.713 139.726V131.79H923.929L924.009 133.214C924.265 132.712 924.633 132.318 925.113 132.03C925.593 131.742 926.137 131.598 926.745 131.598C927.684 131.598 928.431 131.886 928.985 132.462C929.551 133.027 929.833 133.902 929.833 135.086V139.726H928.489V135.23C928.489 134.408 928.319 133.79 927.977 133.374C927.636 132.958 927.124 132.75 926.441 132.75C925.759 132.75 925.188 133 924.729 133.502C924.281 133.992 924.057 134.696 924.057 135.614V139.726H922.713ZM934.797 139.918C934.179 139.918 933.635 139.795 933.165 139.55C932.707 139.294 932.349 138.91 932.093 138.398C931.837 137.875 931.709 137.219 931.709 136.43V131.79H933.053V136.286C933.053 137.107 933.224 137.726 933.565 138.142C933.907 138.558 934.419 138.766 935.101 138.766C935.784 138.766 936.349 138.52 936.797 138.03C937.256 137.528 937.485 136.819 937.485 135.902V131.79H938.829V139.726H937.613L937.533 138.302C937.277 138.803 936.909 139.198 936.429 139.486C935.949 139.774 935.405 139.918 934.797 139.918ZM944.61 139.918C943.874 139.918 943.207 139.747 942.61 139.406C942.023 139.064 941.559 138.584 941.218 137.966C940.876 137.336 940.706 136.6 940.706 135.758C940.706 134.926 940.866 134.2 941.186 133.582C941.516 132.952 941.975 132.467 942.562 132.126C943.159 131.774 943.852 131.598 944.641 131.598C945.388 131.598 946.039 131.763 946.594 132.094C947.148 132.424 947.58 132.872 947.89 133.438C948.21 133.992 948.37 134.616 948.37 135.31C948.37 135.459 948.37 135.576 948.37 135.662C948.37 135.747 948.364 135.88 948.354 136.062H942.034C942.066 136.584 942.188 137.054 942.402 137.47C942.626 137.875 942.924 138.195 943.298 138.43C943.682 138.664 944.119 138.782 944.61 138.782C945.164 138.782 945.628 138.654 946.002 138.398C946.375 138.142 946.647 137.795 946.818 137.358H948.146C948.007 137.848 947.778 138.286 947.458 138.67C947.138 139.054 946.738 139.358 946.258 139.582C945.788 139.806 945.239 139.918 944.61 139.918ZM942.049 135.022H947.042C947.01 134.307 946.764 133.747 946.306 133.342C945.847 132.936 945.282 132.734 944.61 132.734C943.97 132.734 943.399 132.931 942.898 133.326C942.407 133.71 942.124 134.275 942.049 135.022ZM954.465 141.326V128.206H955.809V141.326H954.465ZM962.418 139.726V128.526H969.234V129.63H963.762V133.406H968.418V134.494H963.762V139.726H962.418ZM973.749 139.726V135.47L970.101 128.526H971.621L974.421 134.19L977.221 128.526H978.725L975.093 135.47V139.726H973.749ZM984.449 139.726V138.558C984.449 138.558 984.529 138.472 984.689 138.302C984.86 138.12 985.084 137.891 985.361 137.614C985.639 137.336 985.932 137.032 986.241 136.702C986.561 136.371 986.876 136.046 987.185 135.726C987.495 135.406 987.767 135.123 988.001 134.878C988.396 134.472 988.748 134.094 989.057 133.742C989.377 133.39 989.633 133.048 989.825 132.718C990.017 132.387 990.113 132.056 990.113 131.726C990.113 131.064 989.948 130.526 989.617 130.11C989.297 129.694 988.775 129.486 988.049 129.486C987.591 129.486 987.191 129.592 986.849 129.806C986.519 130.008 986.263 130.286 986.081 130.638C985.911 130.99 985.825 131.395 985.825 131.854H984.529C984.529 131.139 984.673 130.52 984.961 129.998C985.26 129.475 985.676 129.07 986.209 128.782C986.743 128.483 987.361 128.334 988.065 128.334C988.759 128.334 989.356 128.462 989.857 128.718C990.369 128.963 990.764 129.336 991.041 129.838C991.319 130.328 991.457 130.942 991.457 131.678C991.457 132.179 991.335 132.648 991.089 133.086C990.844 133.523 990.551 133.923 990.209 134.286C989.868 134.648 989.553 134.979 989.265 135.278C989.095 135.448 988.871 135.672 988.593 135.95C988.327 136.227 988.044 136.52 987.745 136.83C987.457 137.128 987.18 137.416 986.913 137.694C986.657 137.96 986.444 138.179 986.273 138.35C986.113 138.52 986.033 138.606 986.033 138.606H991.841V139.726H984.449ZM997.771 139.918C997.056 139.918 996.411 139.79 995.835 139.534C995.27 139.267 994.811 138.894 994.459 138.414C994.107 137.923 993.888 137.352 993.803 136.702H995.115C995.243 137.32 995.542 137.822 996.011 138.206C996.48 138.579 997.072 138.766 997.787 138.766C998.32 138.766 998.779 138.643 999.163 138.398C999.547 138.152 999.84 137.816 1000.04 137.39C1000.26 136.963 1000.36 136.483 1000.36 135.95C1000.36 135.118 1000.13 134.446 999.659 133.934C999.19 133.422 998.582 133.166 997.835 133.166C997.216 133.166 996.688 133.304 996.251 133.582C995.814 133.859 995.494 134.222 995.291 134.67H994.011L994.971 128.526H1000.84V129.694H996.011L995.355 133.102C995.611 132.792 995.963 132.536 996.411 132.334C996.87 132.131 997.392 132.03 997.979 132.03C998.715 132.03 999.355 132.2 999.899 132.542C1000.45 132.883 1000.89 133.347 1001.2 133.934C1001.34 134.232 1001.46 134.547 1001.53 134.878C1001.62 135.208 1001.66 135.56 1001.66 135.934C1001.66 136.712 1001.49 137.4 1001.16 137.998C1000.84 138.595 1000.39 139.064 999.803 139.406C999.227 139.747 998.55 139.918 997.771 139.918ZM1003.41 135.646V134.51H1009.75V135.646H1003.41ZM1011.84 139.726V138.558C1011.84 138.558 1011.92 138.472 1012.08 138.302C1012.25 138.12 1012.47 137.891 1012.75 137.614C1013.03 137.336 1013.32 137.032 1013.63 136.702C1013.95 136.371 1014.27 136.046 1014.58 135.726C1014.89 135.406 1015.16 135.123 1015.39 134.878C1015.79 134.472 1016.14 134.094 1016.45 133.742C1016.77 133.39 1017.02 133.048 1017.22 132.718C1017.41 132.387 1017.5 132.056 1017.5 131.726C1017.5 131.064 1017.34 130.526 1017.01 130.11C1016.69 129.694 1016.17 129.486 1015.44 129.486C1014.98 129.486 1014.58 129.592 1014.24 129.806C1013.91 130.008 1013.65 130.286 1013.47 130.638C1013.3 130.99 1013.22 131.395 1013.22 131.854H1011.92C1011.92 131.139 1012.06 130.52 1012.35 129.998C1012.65 129.475 1013.07 129.07 1013.6 128.782C1014.13 128.483 1014.75 128.334 1015.46 128.334C1016.15 128.334 1016.75 128.462 1017.25 128.718C1017.76 128.963 1018.15 129.336 1018.43 129.838C1018.71 130.328 1018.85 130.942 1018.85 131.678C1018.85 132.179 1018.73 132.648 1018.48 133.086C1018.23 133.523 1017.94 133.923 1017.6 134.286C1017.26 134.648 1016.94 134.979 1016.66 135.278C1016.49 135.448 1016.26 135.672 1015.98 135.95C1015.72 136.227 1015.43 136.52 1015.14 136.83C1014.85 137.128 1014.57 137.416 1014.3 137.694C1014.05 137.96 1013.83 138.179 1013.66 138.35C1013.5 138.52 1013.42 138.606 1013.42 138.606H1019.23V139.726H1011.84ZM1025.35 139.918C1024.6 139.918 1023.95 139.768 1023.42 139.47C1022.89 139.16 1022.47 138.75 1022.15 138.238C1021.84 137.726 1021.61 137.155 1021.47 136.526C1021.33 135.886 1021.26 135.235 1021.26 134.574C1021.26 133.336 1021.42 132.254 1021.74 131.326C1022.06 130.387 1022.53 129.656 1023.15 129.134C1023.44 128.867 1023.77 128.67 1024.14 128.542C1024.51 128.403 1024.91 128.334 1025.34 128.334C1026 128.334 1026.56 128.472 1027.03 128.75C1027.51 129.027 1027.89 129.4 1028.17 129.87C1028.31 130.104 1028.41 130.35 1028.49 130.606C1028.57 130.862 1028.64 131.128 1028.68 131.406H1027.45C1027.34 130.798 1027.1 130.328 1026.71 129.998C1026.34 129.667 1025.88 129.502 1025.32 129.502C1024.82 129.502 1024.36 129.667 1023.95 129.998C1023.53 130.318 1023.19 130.83 1022.94 131.534C1022.68 132.227 1022.54 133.139 1022.52 134.27C1022.77 133.768 1023.14 133.358 1023.64 133.038C1024.14 132.718 1024.77 132.558 1025.51 132.558C1026.12 132.558 1026.69 132.707 1027.21 133.006C1027.74 133.304 1028.17 133.726 1028.51 134.27C1028.84 134.814 1029 135.443 1029 136.158C1029 136.787 1028.85 137.39 1028.55 137.966C1028.27 138.542 1027.84 139.011 1027.29 139.374C1026.76 139.736 1026.11 139.918 1025.35 139.918ZM1025.27 138.734C1025.77 138.734 1026.2 138.622 1026.55 138.398C1026.91 138.163 1027.17 137.854 1027.35 137.47C1027.55 137.086 1027.64 136.67 1027.64 136.222C1027.64 135.464 1027.41 134.862 1026.95 134.414C1026.51 133.955 1025.95 133.726 1025.27 133.726C1024.8 133.726 1024.39 133.843 1024.03 134.078C1023.66 134.312 1023.38 134.622 1023.18 135.006C1022.99 135.379 1022.89 135.79 1022.89 136.238C1022.89 136.707 1022.99 137.134 1023.18 137.518C1023.38 137.891 1023.66 138.19 1024.03 138.414C1024.39 138.627 1024.8 138.734 1025.27 138.734ZM1031.43 133.422C1031.16 133.422 1030.94 133.336 1030.76 133.166C1030.58 132.984 1030.5 132.766 1030.5 132.51C1030.5 132.254 1030.58 132.04 1030.76 131.87C1030.94 131.688 1031.16 131.598 1031.43 131.598C1031.68 131.598 1031.9 131.688 1032.07 131.87C1032.25 132.04 1032.34 132.254 1032.34 132.51C1032.34 132.766 1032.25 132.984 1032.07 133.166C1031.9 133.336 1031.68 133.422 1031.43 133.422ZM1031.43 139.806C1031.16 139.806 1030.94 139.72 1030.76 139.55C1030.58 139.368 1030.5 139.15 1030.5 138.894C1030.5 138.638 1030.58 138.424 1030.76 138.254C1030.94 138.072 1031.16 137.982 1031.43 137.982C1031.68 137.982 1031.9 138.072 1032.07 138.254C1032.25 138.424 1032.34 138.638 1032.34 138.894C1032.34 139.15 1032.25 139.368 1032.07 139.55C1031.9 139.72 1031.68 139.806 1031.43 139.806ZM1038.47 139.726V128.526H1039.81V139.726H1038.47ZM1042.18 139.726V128.526H1043.53L1049.5 137.502V128.526H1050.84V139.726H1049.5L1043.53 130.75V139.726H1042.18ZM1053.22 139.726V128.526H1056.53C1057.32 128.526 1057.99 128.643 1058.54 128.878C1059.1 129.102 1059.52 129.443 1059.82 129.902C1060.12 130.36 1060.27 130.942 1060.27 131.646C1060.27 132.52 1060.04 133.182 1059.58 133.63C1059.14 134.078 1058.52 134.371 1057.74 134.51L1060.96 139.726H1059.3L1056.42 134.766H1054.56V139.726H1053.22ZM1054.56 133.63H1056.5C1057.09 133.63 1057.57 133.56 1057.92 133.422C1058.27 133.272 1058.52 133.048 1058.67 132.75C1058.82 132.451 1058.9 132.083 1058.9 131.646C1058.9 131.198 1058.82 130.824 1058.67 130.526C1058.52 130.227 1058.27 130.008 1057.92 129.87C1057.57 129.72 1057.09 129.646 1056.5 129.646H1054.56V133.63ZM1066.92 139.726V138.558C1066.92 138.558 1067 138.472 1067.16 138.302C1067.33 138.12 1067.55 137.891 1067.83 137.614C1068.11 137.336 1068.4 137.032 1068.71 136.702C1069.03 136.371 1069.34 136.046 1069.65 135.726C1069.96 135.406 1070.24 135.123 1070.47 134.878C1070.86 134.472 1071.22 134.094 1071.53 133.742C1071.85 133.39 1072.1 133.048 1072.29 132.718C1072.49 132.387 1072.58 132.056 1072.58 131.726C1072.58 131.064 1072.42 130.526 1072.09 130.11C1071.77 129.694 1071.24 129.486 1070.52 129.486C1070.06 129.486 1069.66 129.592 1069.32 129.806C1068.99 130.008 1068.73 130.286 1068.55 130.638C1068.38 130.99 1068.29 131.395 1068.29 131.854H1067C1067 131.139 1067.14 130.52 1067.43 129.998C1067.73 129.475 1068.14 129.07 1068.68 128.782C1069.21 128.483 1069.83 128.334 1070.53 128.334C1071.23 128.334 1071.82 128.462 1072.33 128.718C1072.84 128.963 1073.23 129.336 1073.51 129.838C1073.79 130.328 1073.93 130.942 1073.93 131.678C1073.93 132.179 1073.8 132.648 1073.56 133.086C1073.31 133.523 1073.02 133.923 1072.68 134.286C1072.34 134.648 1072.02 134.979 1071.73 135.278C1071.56 135.448 1071.34 135.672 1071.06 135.95C1070.8 136.227 1070.51 136.52 1070.21 136.83C1069.93 137.128 1069.65 137.416 1069.38 137.694C1069.13 137.96 1068.91 138.179 1068.74 138.35C1068.58 138.52 1068.5 138.606 1068.5 138.606H1074.31V139.726H1066.92ZM1075.38 141.63L1076.3 138.094H1077.7L1076.3 141.63H1075.38ZM1083.28 139.918C1082.52 139.918 1081.87 139.768 1081.34 139.47C1080.82 139.16 1080.4 138.75 1080.08 138.238C1079.77 137.726 1079.54 137.155 1079.39 136.526C1079.25 135.886 1079.18 135.235 1079.18 134.574C1079.18 133.336 1079.34 132.254 1079.66 131.326C1079.98 130.387 1080.45 129.656 1081.07 129.134C1081.37 128.867 1081.7 128.67 1082.06 128.542C1082.43 128.403 1082.83 128.334 1083.26 128.334C1083.92 128.334 1084.49 128.472 1084.96 128.75C1085.44 129.027 1085.81 129.4 1086.09 129.87C1086.23 130.104 1086.34 130.35 1086.41 130.606C1086.5 130.862 1086.56 131.128 1086.6 131.406H1085.37C1085.26 130.798 1085.02 130.328 1084.64 129.998C1084.26 129.667 1083.8 129.502 1083.24 129.502C1082.74 129.502 1082.28 129.667 1081.87 129.998C1081.45 130.318 1081.12 130.83 1080.86 131.534C1080.6 132.227 1080.46 133.139 1080.44 134.27C1080.69 133.768 1081.06 133.358 1081.56 133.038C1082.06 132.718 1082.69 132.558 1083.44 132.558C1084.04 132.558 1084.61 132.707 1085.13 133.006C1085.66 133.304 1086.1 133.726 1086.43 134.27C1086.76 134.814 1086.92 135.443 1086.92 136.158C1086.92 136.787 1086.77 137.39 1086.48 137.966C1086.19 138.542 1085.77 139.011 1085.21 139.374C1084.68 139.736 1084.03 139.918 1083.28 139.918ZM1083.2 138.734C1083.7 138.734 1084.12 138.622 1084.48 138.398C1084.83 138.163 1085.09 137.854 1085.28 137.47C1085.47 137.086 1085.56 136.67 1085.56 136.222C1085.56 135.464 1085.33 134.862 1084.88 134.414C1084.43 133.955 1083.87 133.726 1083.2 133.726C1082.73 133.726 1082.31 133.843 1081.95 134.078C1081.58 134.312 1081.3 134.622 1081.1 135.006C1080.91 135.379 1080.81 135.79 1080.81 136.238C1080.81 136.707 1080.91 137.134 1081.1 137.518C1081.3 137.891 1081.58 138.19 1081.95 138.414C1082.31 138.627 1082.73 138.734 1083.2 138.734ZM1092.6 139.918C1091.57 139.918 1090.75 139.662 1090.13 139.15C1089.51 138.638 1089.07 137.944 1088.79 137.07C1088.51 136.195 1088.37 135.214 1088.37 134.126C1088.37 133.038 1088.51 132.056 1088.79 131.182C1089.07 130.307 1089.51 129.614 1090.13 129.102C1090.75 128.59 1091.57 128.334 1092.6 128.334C1093.62 128.334 1094.44 128.584 1095.05 129.086C1095.66 129.587 1096.11 130.275 1096.39 131.15C1096.67 132.024 1096.81 133.016 1096.81 134.126C1096.81 135.235 1096.67 136.227 1096.39 137.102C1096.11 137.976 1095.66 138.664 1095.05 139.166C1094.44 139.667 1093.62 139.918 1092.6 139.918ZM1092.6 138.718C1093.58 138.718 1094.29 138.307 1094.74 137.486C1095.2 136.664 1095.43 135.544 1095.43 134.126C1095.43 132.707 1095.2 131.587 1094.74 130.766C1094.29 129.944 1093.58 129.534 1092.6 129.534C1091.63 129.534 1090.91 129.944 1090.44 130.766C1089.98 131.587 1089.75 132.707 1089.75 134.126C1089.75 135.544 1089.98 136.664 1090.44 137.486C1090.91 138.307 1091.63 138.718 1092.6 138.718ZM1097.41 141.63L1098.34 138.094H1099.73L1098.34 141.63H1097.41ZM1105.03 139.918C1104.01 139.918 1103.19 139.662 1102.57 139.15C1101.95 138.638 1101.5 137.944 1101.23 137.07C1100.95 136.195 1100.81 135.214 1100.81 134.126C1100.81 133.038 1100.95 132.056 1101.23 131.182C1101.5 130.307 1101.95 129.614 1102.57 129.102C1103.19 128.59 1104.01 128.334 1105.03 128.334C1106.06 128.334 1106.87 128.584 1107.48 129.086C1108.1 129.587 1108.55 130.275 1108.83 131.15C1109.1 132.024 1109.24 133.016 1109.24 134.126C1109.24 135.235 1109.1 136.227 1108.83 137.102C1108.55 137.976 1108.1 138.664 1107.48 139.166C1106.87 139.667 1106.06 139.918 1105.03 139.918ZM1105.03 138.718C1106.02 138.718 1106.73 138.307 1107.18 137.486C1107.64 136.664 1107.87 135.544 1107.87 134.126C1107.87 132.707 1107.64 131.587 1107.18 130.766C1106.73 129.944 1106.02 129.534 1105.03 129.534C1104.06 129.534 1103.34 129.944 1102.87 130.766C1102.42 131.587 1102.19 132.707 1102.19 134.126C1102.19 135.544 1102.42 136.664 1102.87 137.486C1103.34 138.307 1104.06 138.718 1105.03 138.718ZM1114.63 139.918C1113.6 139.918 1112.78 139.662 1112.16 139.15C1111.55 138.638 1111.1 137.944 1110.82 137.07C1110.54 136.195 1110.4 135.214 1110.4 134.126C1110.4 133.038 1110.54 132.056 1110.82 131.182C1111.1 130.307 1111.55 129.614 1112.16 129.102C1112.78 128.59 1113.6 128.334 1114.63 128.334C1115.65 128.334 1116.47 128.584 1117.08 129.086C1117.7 129.587 1118.14 130.275 1118.42 131.15C1118.7 132.024 1118.84 133.016 1118.84 134.126C1118.84 135.235 1118.7 136.227 1118.42 137.102C1118.14 137.976 1117.7 138.664 1117.08 139.166C1116.47 139.667 1115.65 139.918 1114.63 139.918ZM1114.63 138.718C1115.61 138.718 1116.32 138.307 1116.77 137.486C1117.23 136.664 1117.46 135.544 1117.46 134.126C1117.46 132.707 1117.23 131.587 1116.77 130.766C1116.32 129.944 1115.61 129.534 1114.63 129.534C1113.66 129.534 1112.94 129.944 1112.47 130.766C1112.01 131.587 1111.78 132.707 1111.78 134.126C1111.78 135.544 1112.01 136.664 1112.47 137.486C1112.94 138.307 1113.66 138.718 1114.63 138.718ZM1124.22 139.918C1123.2 139.918 1122.38 139.662 1121.76 139.15C1121.14 138.638 1120.69 137.944 1120.41 137.07C1120.14 136.195 1120 135.214 1120 134.126C1120 133.038 1120.14 132.056 1120.41 131.182C1120.69 130.307 1121.14 129.614 1121.76 129.102C1122.38 128.59 1123.2 128.334 1124.22 128.334C1125.25 128.334 1126.06 128.584 1126.67 129.086C1127.29 129.587 1127.74 130.275 1128.01 131.15C1128.29 132.024 1128.43 133.016 1128.43 134.126C1128.43 135.235 1128.29 136.227 1128.01 137.102C1127.74 137.976 1127.29 138.664 1126.67 139.166C1126.06 139.667 1125.25 139.918 1124.22 139.918ZM1124.22 138.718C1125.2 138.718 1125.92 138.307 1126.37 137.486C1126.82 136.664 1127.05 135.544 1127.05 134.126C1127.05 132.707 1126.82 131.587 1126.37 130.766C1125.92 129.944 1125.2 129.534 1124.22 129.534C1123.25 129.534 1122.53 129.944 1122.06 130.766C1121.6 131.587 1121.37 132.707 1121.37 134.126C1121.37 135.544 1121.6 136.664 1122.06 137.486C1122.53 138.307 1123.25 138.718 1124.22 138.718Z" fill="black" fill-opacity="0.8"/>
<path d="M875.299 159.689C874.168 159.689 873.203 159.438 872.403 158.937C871.603 158.425 870.995 157.732 870.579 156.857C870.163 155.982 869.955 154.996 869.955 153.897C869.955 152.809 870.158 151.828 870.563 150.953C870.979 150.078 871.587 149.385 872.387 148.873C873.187 148.361 874.158 148.105 875.299 148.105C876.579 148.105 877.619 148.414 878.419 149.033C879.23 149.641 879.747 150.494 879.971 151.593H878.483C878.312 150.9 877.96 150.345 877.427 149.929C876.904 149.502 876.195 149.289 875.299 149.289C874.414 149.289 873.678 149.497 873.091 149.913C872.504 150.318 872.062 150.868 871.763 151.561C871.475 152.254 871.331 153.033 871.331 153.897C871.331 154.782 871.48 155.572 871.779 156.265C872.088 156.958 872.536 157.508 873.123 157.913C873.71 158.308 874.435 158.505 875.299 158.505C876.195 158.505 876.904 158.302 877.427 157.897C877.96 157.481 878.312 156.932 878.483 156.249H879.971C879.747 157.326 879.23 158.169 878.419 158.777C877.619 159.385 876.579 159.689 875.299 159.689ZM885.487 159.689C884.761 159.689 884.095 159.529 883.487 159.209C882.879 158.878 882.393 158.404 882.031 157.785C881.668 157.156 881.487 156.398 881.487 155.513C881.487 154.67 881.663 153.94 882.015 153.321C882.377 152.702 882.863 152.222 883.471 151.881C884.089 151.54 884.783 151.369 885.551 151.369C886.287 151.369 886.959 151.529 887.567 151.849C888.185 152.169 888.681 152.638 889.055 153.257C889.428 153.876 889.615 154.628 889.615 155.513C889.615 156.324 889.439 157.044 889.087 157.673C888.735 158.302 888.244 158.798 887.615 159.161C886.996 159.513 886.287 159.689 885.487 159.689ZM885.487 158.521C886.009 158.521 886.479 158.398 886.895 158.153C887.311 157.897 887.641 157.545 887.887 157.097C888.132 156.649 888.255 156.121 888.255 155.513C888.255 154.937 888.148 154.425 887.935 153.977C887.721 153.529 887.412 153.177 887.007 152.921C886.601 152.665 886.111 152.537 885.535 152.537C884.948 152.537 884.452 152.67 884.047 152.937C883.652 153.204 883.353 153.561 883.151 154.009C882.948 154.457 882.847 154.958 882.847 155.513C882.847 156.217 882.975 156.793 883.231 157.241C883.487 157.678 883.817 158.004 884.223 158.217C884.628 158.42 885.049 158.521 885.487 158.521ZM891.479 159.497V151.561H892.695L892.791 152.713C893.047 152.286 893.388 151.956 893.815 151.721C894.242 151.486 894.722 151.369 895.255 151.369C895.884 151.369 896.423 151.497 896.871 151.753C897.33 152.009 897.682 152.398 897.927 152.921C898.204 152.441 898.583 152.062 899.063 151.785C899.554 151.508 900.082 151.369 900.647 151.369C901.287 151.369 901.836 151.497 902.295 151.753C902.764 151.998 903.127 152.382 903.383 152.905C903.639 153.417 903.767 154.068 903.767 154.857V159.497H902.439V155.001C902.439 154.18 902.274 153.561 901.943 153.145C901.612 152.729 901.138 152.521 900.519 152.521C899.879 152.521 899.346 152.772 898.919 153.273C898.503 153.764 898.295 154.468 898.295 155.385V159.497H896.951V155.001C896.951 154.18 896.786 153.561 896.455 153.145C896.124 152.729 895.65 152.521 895.031 152.521C894.402 152.521 893.874 152.772 893.447 153.273C893.031 153.764 892.823 154.468 892.823 155.385V159.497H891.479ZM905.792 159.497V151.561H907.008L907.104 152.713C907.36 152.286 907.701 151.956 908.128 151.721C908.554 151.486 909.034 151.369 909.568 151.369C910.197 151.369 910.736 151.497 911.184 151.753C911.642 152.009 911.994 152.398 912.24 152.921C912.517 152.441 912.896 152.062 913.376 151.785C913.866 151.508 914.394 151.369 914.96 151.369C915.6 151.369 916.149 151.497 916.608 151.753C917.077 151.998 917.44 152.382 917.696 152.905C917.952 153.417 918.08 154.068 918.08 154.857V159.497H916.752V155.001C916.752 154.18 916.586 153.561 916.256 153.145C915.925 152.729 915.45 152.521 914.832 152.521C914.192 152.521 913.658 152.772 913.232 153.273C912.816 153.764 912.608 154.468 912.608 155.385V159.497H911.264V155.001C911.264 154.18 911.098 153.561 910.768 153.145C910.437 152.729 909.962 152.521 909.344 152.521C908.714 152.521 908.186 152.772 907.76 153.273C907.344 153.764 907.136 154.468 907.136 155.385V159.497H905.792ZM920.92 149.801C920.653 149.801 920.429 149.716 920.248 149.545C920.077 149.364 919.992 149.14 919.992 148.873C919.992 148.617 920.077 148.404 920.248 148.233C920.429 148.062 920.653 147.977 920.92 147.977C921.176 147.977 921.395 148.062 921.576 148.233C921.757 148.404 921.848 148.617 921.848 148.873C921.848 149.14 921.757 149.364 921.576 149.545C921.395 149.716 921.176 149.801 920.92 149.801ZM920.248 159.497V151.561H921.592V159.497H920.248ZM926.972 159.689C926.343 159.689 925.777 159.582 925.276 159.369C924.775 159.145 924.369 158.836 924.06 158.441C923.761 158.036 923.575 157.561 923.5 157.017H924.876C924.961 157.433 925.18 157.796 925.532 158.105C925.895 158.404 926.38 158.553 926.988 158.553C927.553 158.553 927.969 158.436 928.236 158.201C928.503 157.956 928.636 157.668 928.636 157.337C928.636 157.017 928.556 156.772 928.396 156.601C928.247 156.43 928.023 156.302 927.724 156.217C927.436 156.121 927.079 156.03 926.652 155.945C926.204 155.849 925.767 155.721 925.34 155.561C924.913 155.39 924.561 155.161 924.284 154.873C924.007 154.585 923.868 154.206 923.868 153.737C923.868 153.268 923.985 152.857 924.22 152.505C924.455 152.153 924.785 151.876 925.212 151.673C925.649 151.47 926.161 151.369 926.748 151.369C927.591 151.369 928.279 151.582 928.812 152.009C929.356 152.425 929.671 153.022 929.756 153.801H928.428C928.375 153.396 928.199 153.081 927.9 152.857C927.612 152.622 927.223 152.505 926.732 152.505C926.252 152.505 925.879 152.606 925.612 152.809C925.356 153.012 925.228 153.278 925.228 153.609C925.228 153.822 925.303 154.004 925.452 154.153C925.601 154.302 925.815 154.43 926.092 154.537C926.38 154.644 926.716 154.74 927.1 154.825C927.633 154.932 928.119 155.065 928.556 155.225C928.993 155.385 929.345 155.62 929.612 155.929C929.879 156.228 930.012 156.66 930.012 157.225C930.023 157.694 929.9 158.116 929.644 158.489C929.399 158.862 929.047 159.156 928.588 159.369C928.14 159.582 927.601 159.689 926.972 159.689ZM934.972 159.689C934.343 159.689 933.777 159.582 933.276 159.369C932.775 159.145 932.369 158.836 932.06 158.441C931.761 158.036 931.575 157.561 931.5 157.017H932.876C932.961 157.433 933.18 157.796 933.532 158.105C933.895 158.404 934.38 158.553 934.988 158.553C935.553 158.553 935.969 158.436 936.236 158.201C936.503 157.956 936.636 157.668 936.636 157.337C936.636 157.017 936.556 156.772 936.396 156.601C936.247 156.43 936.023 156.302 935.724 156.217C935.436 156.121 935.079 156.03 934.652 155.945C934.204 155.849 933.767 155.721 933.34 155.561C932.913 155.39 932.561 155.161 932.284 154.873C932.007 154.585 931.868 154.206 931.868 153.737C931.868 153.268 931.985 152.857 932.22 152.505C932.455 152.153 932.785 151.876 933.212 151.673C933.649 151.47 934.161 151.369 934.748 151.369C935.591 151.369 936.279 151.582 936.812 152.009C937.356 152.425 937.671 153.022 937.756 153.801H936.428C936.375 153.396 936.199 153.081 935.9 152.857C935.612 152.622 935.223 152.505 934.732 152.505C934.252 152.505 933.879 152.606 933.612 152.809C933.356 153.012 933.228 153.278 933.228 153.609C933.228 153.822 933.303 154.004 933.452 154.153C933.601 154.302 933.815 154.43 934.092 154.537C934.38 154.644 934.716 154.74 935.1 154.825C935.633 154.932 936.119 155.065 936.556 155.225C936.993 155.385 937.345 155.62 937.612 155.929C937.879 156.228 938.012 156.66 938.012 157.225C938.023 157.694 937.9 158.116 937.644 158.489C937.399 158.862 937.047 159.156 936.588 159.369C936.14 159.582 935.601 159.689 934.972 159.689ZM940.748 149.801C940.481 149.801 940.257 149.716 940.076 149.545C939.905 149.364 939.82 149.14 939.82 148.873C939.82 148.617 939.905 148.404 940.076 148.233C940.257 148.062 940.481 147.977 940.748 147.977C941.004 147.977 941.223 148.062 941.404 148.233C941.585 148.404 941.676 148.617 941.676 148.873C941.676 149.14 941.585 149.364 941.404 149.545C941.223 149.716 941.004 149.801 940.748 149.801ZM940.076 159.497V151.561H941.42V159.497H940.076ZM947.424 159.689C946.699 159.689 946.032 159.529 945.424 159.209C944.816 158.878 944.331 158.404 943.968 157.785C943.606 157.156 943.424 156.398 943.424 155.513C943.424 154.67 943.6 153.94 943.952 153.321C944.315 152.702 944.8 152.222 945.408 151.881C946.027 151.54 946.72 151.369 947.488 151.369C948.224 151.369 948.896 151.529 949.504 151.849C950.123 152.169 950.619 152.638 950.992 153.257C951.366 153.876 951.552 154.628 951.552 155.513C951.552 156.324 951.376 157.044 951.024 157.673C950.672 158.302 950.182 158.798 949.552 159.161C948.934 159.513 948.224 159.689 947.424 159.689ZM947.424 158.521C947.947 158.521 948.416 158.398 948.832 158.153C949.248 157.897 949.579 157.545 949.824 157.097C950.07 156.649 950.192 156.121 950.192 155.513C950.192 154.937 950.086 154.425 949.872 153.977C949.659 153.529 949.35 153.177 948.944 152.921C948.539 152.665 948.048 152.537 947.472 152.537C946.886 152.537 946.39 152.67 945.984 152.937C945.59 153.204 945.291 153.561 945.088 154.009C944.886 154.457 944.784 154.958 944.784 155.513C944.784 156.217 944.912 156.793 945.168 157.241C945.424 157.678 945.755 158.004 946.16 158.217C946.566 158.42 946.987 158.521 947.424 158.521ZM953.417 159.497V151.561H954.633L954.713 152.985C954.969 152.484 955.337 152.089 955.817 151.801C956.297 151.513 956.841 151.369 957.449 151.369C958.387 151.369 959.134 151.657 959.689 152.233C960.254 152.798 960.536 153.673 960.536 154.857V159.497H959.193V155.001C959.193 154.18 959.022 153.561 958.681 153.145C958.339 152.729 957.827 152.521 957.145 152.521C956.462 152.521 955.891 152.772 955.433 153.273C954.985 153.764 954.761 154.468 954.761 155.385V159.497H953.417ZM966.903 161.097V147.977H968.247V161.097H966.903ZM974.856 159.497V148.297H981.672V149.401H976.2V153.177H980.856V154.265H976.2V159.497H974.856ZM986.187 159.497V155.241L982.539 148.297H984.059L986.859 153.961L989.659 148.297H991.163L987.531 155.241V159.497H986.187ZM996.887 159.497V158.329C996.887 158.329 996.967 158.244 997.127 158.073C997.297 157.892 997.521 157.662 997.799 157.385C998.076 157.108 998.369 156.804 998.679 156.473C998.999 156.142 999.313 155.817 999.623 155.497C999.932 155.177 1000.2 154.894 1000.44 154.649C1000.83 154.244 1001.19 153.865 1001.49 153.513C1001.81 153.161 1002.07 152.82 1002.26 152.489C1002.45 152.158 1002.55 151.828 1002.55 151.497C1002.55 150.836 1002.39 150.297 1002.05 149.881C1001.73 149.465 1001.21 149.257 1000.49 149.257C1000.03 149.257 999.628 149.364 999.287 149.577C998.956 149.78 998.7 150.057 998.519 150.409C998.348 150.761 998.263 151.166 998.263 151.625H996.967C996.967 150.91 997.111 150.292 997.399 149.769C997.697 149.246 998.113 148.841 998.647 148.553C999.18 148.254 999.799 148.105 1000.5 148.105C1001.2 148.105 1001.79 148.233 1002.29 148.489C1002.81 148.734 1003.2 149.108 1003.48 149.609C1003.76 150.1 1003.89 150.713 1003.89 151.449C1003.89 151.95 1003.77 152.42 1003.53 152.857C1003.28 153.294 1002.99 153.694 1002.65 154.057C1002.31 154.42 1001.99 154.75 1001.7 155.049C1001.53 155.22 1001.31 155.444 1001.03 155.721C1000.76 155.998 1000.48 156.292 1000.18 156.601C999.895 156.9 999.617 157.188 999.351 157.465C999.095 157.732 998.881 157.95 998.711 158.121C998.551 158.292 998.471 158.377 998.471 158.377H1004.28V159.497H996.887ZM1010.21 159.689C1009.49 159.689 1008.85 159.561 1008.27 159.305C1007.71 159.038 1007.25 158.665 1006.9 158.185C1006.54 157.694 1006.33 157.124 1006.24 156.473H1007.55C1007.68 157.092 1007.98 157.593 1008.45 157.977C1008.92 158.35 1009.51 158.537 1010.22 158.537C1010.76 158.537 1011.22 158.414 1011.6 158.169C1011.98 157.924 1012.28 157.588 1012.48 157.161C1012.69 156.734 1012.8 156.254 1012.8 155.721C1012.8 154.889 1012.57 154.217 1012.1 153.705C1011.63 153.193 1011.02 152.937 1010.27 152.937C1009.65 152.937 1009.13 153.076 1008.69 153.353C1008.25 153.63 1007.93 153.993 1007.73 154.441H1006.45L1007.41 148.297H1013.28V149.465H1008.45L1007.79 152.873C1008.05 152.564 1008.4 152.308 1008.85 152.105C1009.31 151.902 1009.83 151.801 1010.42 151.801C1011.15 151.801 1011.79 151.972 1012.34 152.313C1012.89 152.654 1013.32 153.118 1013.63 153.705C1013.78 154.004 1013.89 154.318 1013.97 154.649C1014.05 154.98 1014.1 155.332 1014.1 155.705C1014.1 156.484 1013.93 157.172 1013.6 157.769C1013.28 158.366 1012.83 158.836 1012.24 159.177C1011.66 159.518 1010.99 159.689 1010.21 159.689ZM1015.85 155.417V154.281H1022.19V155.417H1015.85ZM1024.28 159.497V158.329C1024.28 158.329 1024.36 158.244 1024.52 158.073C1024.69 157.892 1024.91 157.662 1025.19 157.385C1025.47 157.108 1025.76 156.804 1026.07 156.473C1026.39 156.142 1026.7 155.817 1027.01 155.497C1027.32 155.177 1027.59 154.894 1027.83 154.649C1028.22 154.244 1028.58 153.865 1028.89 153.513C1029.21 153.161 1029.46 152.82 1029.65 152.489C1029.85 152.158 1029.94 151.828 1029.94 151.497C1029.94 150.836 1029.78 150.297 1029.45 149.881C1029.13 149.465 1028.6 149.257 1027.88 149.257C1027.42 149.257 1027.02 149.364 1026.68 149.577C1026.35 149.78 1026.09 150.057 1025.91 150.409C1025.74 150.761 1025.65 151.166 1025.65 151.625H1024.36C1024.36 150.91 1024.5 150.292 1024.79 149.769C1025.09 149.246 1025.5 148.841 1026.04 148.553C1026.57 148.254 1027.19 148.105 1027.89 148.105C1028.59 148.105 1029.18 148.233 1029.69 148.489C1030.2 148.734 1030.59 149.108 1030.87 149.609C1031.15 150.1 1031.29 150.713 1031.29 151.449C1031.29 151.95 1031.16 152.42 1030.92 152.857C1030.67 153.294 1030.38 153.694 1030.04 154.057C1029.7 154.42 1029.38 154.75 1029.09 155.049C1028.92 155.22 1028.7 155.444 1028.42 155.721C1028.15 155.998 1027.87 156.292 1027.57 156.601C1027.29 156.9 1027.01 157.188 1026.74 157.465C1026.49 157.732 1026.27 157.95 1026.1 158.121C1025.94 158.292 1025.86 158.377 1025.86 158.377H1031.67V159.497H1024.28ZM1037.79 159.689C1037.03 159.689 1036.39 159.54 1035.86 159.241C1035.33 158.932 1034.91 158.521 1034.59 158.009C1034.28 157.497 1034.05 156.926 1033.9 156.297C1033.76 155.657 1033.7 155.006 1033.7 154.345C1033.7 153.108 1033.86 152.025 1034.18 151.097C1034.5 150.158 1034.96 149.428 1035.58 148.905C1035.88 148.638 1036.21 148.441 1036.58 148.313C1036.95 148.174 1037.35 148.105 1037.78 148.105C1038.44 148.105 1039 148.244 1039.47 148.521C1039.95 148.798 1040.33 149.172 1040.61 149.641C1040.75 149.876 1040.85 150.121 1040.93 150.377C1041.01 150.633 1041.08 150.9 1041.12 151.177H1039.89C1039.78 150.569 1039.54 150.1 1039.15 149.769C1038.78 149.438 1038.31 149.273 1037.76 149.273C1037.26 149.273 1036.8 149.438 1036.38 149.769C1035.97 150.089 1035.63 150.601 1035.38 151.305C1035.12 151.998 1034.98 152.91 1034.96 154.041C1035.2 153.54 1035.58 153.129 1036.08 152.809C1036.58 152.489 1037.2 152.329 1037.95 152.329C1038.56 152.329 1039.12 152.478 1039.65 152.777C1040.18 153.076 1040.61 153.497 1040.94 154.041C1041.27 154.585 1041.44 155.214 1041.44 155.929C1041.44 156.558 1041.29 157.161 1040.99 157.737C1040.7 158.313 1040.28 158.782 1039.73 159.145C1039.19 159.508 1038.55 159.689 1037.79 159.689ZM1037.71 158.505C1038.21 158.505 1038.64 158.393 1038.99 158.169C1039.34 157.934 1039.61 157.625 1039.79 157.241C1039.98 156.857 1040.08 156.441 1040.08 155.993C1040.08 155.236 1039.85 154.633 1039.39 154.185C1038.94 153.726 1038.38 153.497 1037.71 153.497C1037.24 153.497 1036.83 153.614 1036.46 153.849C1036.1 154.084 1035.82 154.393 1035.62 154.777C1035.42 155.15 1035.33 155.561 1035.33 156.009C1035.33 156.478 1035.42 156.905 1035.62 157.289C1035.82 157.662 1036.1 157.961 1036.46 158.185C1036.83 158.398 1037.24 158.505 1037.71 158.505ZM1043.86 153.193C1043.6 153.193 1043.37 153.108 1043.19 152.937C1043.02 152.756 1042.94 152.537 1042.94 152.281C1042.94 152.025 1043.02 151.812 1043.19 151.641C1043.37 151.46 1043.6 151.369 1043.86 151.369C1044.12 151.369 1044.33 151.46 1044.5 151.641C1044.69 151.812 1044.78 152.025 1044.78 152.281C1044.78 152.537 1044.69 152.756 1044.5 152.937C1044.33 153.108 1044.12 153.193 1043.86 153.193ZM1043.86 159.577C1043.6 159.577 1043.37 159.492 1043.19 159.321C1043.02 159.14 1042.94 158.921 1042.94 158.665C1042.94 158.409 1043.02 158.196 1043.19 158.025C1043.37 157.844 1043.6 157.753 1043.86 157.753C1044.12 157.753 1044.33 157.844 1044.5 158.025C1044.69 158.196 1044.78 158.409 1044.78 158.665C1044.78 158.921 1044.69 159.14 1044.5 159.321C1044.33 159.492 1044.12 159.577 1043.86 159.577ZM1050.9 159.497V148.297H1052.25V159.497H1050.9ZM1054.62 159.497V148.297H1055.97L1061.93 157.273V148.297H1063.28V159.497H1061.93L1055.97 150.521V159.497H1054.62ZM1065.65 159.497V148.297H1068.96C1069.75 148.297 1070.43 148.414 1070.98 148.649C1071.54 148.873 1071.96 149.214 1072.26 149.673C1072.56 150.132 1072.71 150.713 1072.71 151.417C1072.71 152.292 1072.48 152.953 1072.02 153.401C1071.57 153.849 1070.96 154.142 1070.18 154.281L1073.4 159.497H1071.73L1068.85 154.537H1067V159.497H1065.65ZM1067 153.401H1068.93C1069.53 153.401 1070 153.332 1070.36 153.193C1070.71 153.044 1070.96 152.82 1071.11 152.521C1071.26 152.222 1071.33 151.854 1071.33 151.417C1071.33 150.969 1071.26 150.596 1071.11 150.297C1070.96 149.998 1070.71 149.78 1070.36 149.641C1070 149.492 1069.53 149.417 1068.93 149.417H1067V153.401ZM1084.36 159.497V157.097H1078.86V156.057L1082.75 148.297H1084.08L1080.28 155.913H1084.43V152.729H1085.69V155.913H1087.32V157.097H1085.69V159.497H1084.36ZM1092.63 159.689C1091.89 159.689 1091.24 159.561 1090.68 159.305C1090.11 159.038 1089.65 158.665 1089.3 158.185C1088.96 157.694 1088.75 157.118 1088.68 156.457H1089.97C1090.11 157.044 1090.4 157.54 1090.84 157.945C1091.27 158.34 1091.87 158.537 1092.63 158.537C1093.45 158.537 1094.08 158.308 1094.52 157.849C1094.97 157.39 1095.19 156.809 1095.19 156.105C1095.19 155.348 1094.95 154.772 1094.49 154.377C1094.03 153.982 1093.41 153.785 1092.65 153.785C1092.44 153.785 1092.24 153.812 1092.04 153.865C1091.83 153.918 1091.64 154.004 1091.45 154.121L1090.61 153.177L1094.47 149.401H1089.14V148.297H1096.12V149.353L1092.63 152.793C1093.11 152.74 1093.58 152.777 1094.04 152.905C1094.5 153.022 1094.91 153.22 1095.27 153.497C1095.64 153.774 1095.94 154.132 1096.15 154.569C1096.37 155.006 1096.49 155.513 1096.49 156.089C1096.49 156.846 1096.32 157.497 1095.99 158.041C1095.67 158.574 1095.22 158.985 1094.65 159.273C1094.07 159.55 1093.4 159.689 1092.63 159.689ZM1097.41 161.401L1098.34 157.865H1099.73L1098.34 161.401H1097.41ZM1102.84 159.497L1107.59 149.449H1101.1V148.297H1108.97V149.305L1104.27 159.497H1102.84ZM1114.9 159.689C1114.14 159.689 1113.5 159.54 1112.96 159.241C1112.44 158.932 1112.02 158.521 1111.7 158.009C1111.39 157.497 1111.16 156.926 1111.01 156.297C1110.87 155.657 1110.8 155.006 1110.8 154.345C1110.8 153.108 1110.96 152.025 1111.28 151.097C1111.6 150.158 1112.07 149.428 1112.69 148.905C1112.99 148.638 1113.32 148.441 1113.68 148.313C1114.06 148.174 1114.46 148.105 1114.88 148.105C1115.55 148.105 1116.11 148.244 1116.58 148.521C1117.06 148.798 1117.44 149.172 1117.72 149.641C1117.86 149.876 1117.96 150.121 1118.04 150.377C1118.12 150.633 1118.19 150.9 1118.23 151.177H1117C1116.89 150.569 1116.64 150.1 1116.26 149.769C1115.89 149.438 1115.42 149.273 1114.87 149.273C1114.37 149.273 1113.91 149.438 1113.49 149.769C1113.08 150.089 1112.74 150.601 1112.48 151.305C1112.23 151.998 1112.09 152.91 1112.07 154.041C1112.31 153.54 1112.69 153.129 1113.19 152.809C1113.69 152.489 1114.31 152.329 1115.06 152.329C1115.67 152.329 1116.23 152.478 1116.76 152.777C1117.29 153.076 1117.72 153.497 1118.05 154.041C1118.38 154.585 1118.55 155.214 1118.55 155.929C1118.55 156.558 1118.4 157.161 1118.1 157.737C1117.81 158.313 1117.39 158.782 1116.84 159.145C1116.3 159.508 1115.66 159.689 1114.9 159.689ZM1114.82 158.505C1115.32 158.505 1115.75 158.393 1116.1 158.169C1116.45 157.934 1116.72 157.625 1116.9 157.241C1117.09 156.857 1117.19 156.441 1117.19 155.993C1117.19 155.236 1116.96 154.633 1116.5 154.185C1116.05 153.726 1115.49 153.497 1114.82 153.497C1114.35 153.497 1113.94 153.614 1113.57 153.849C1113.21 154.084 1112.93 154.393 1112.72 154.777C1112.53 155.15 1112.44 155.561 1112.44 156.009C1112.44 156.478 1112.53 156.905 1112.72 157.289C1112.93 157.662 1113.21 157.961 1113.57 158.185C1113.94 158.398 1114.35 158.505 1114.82 158.505ZM1124.22 159.689C1123.2 159.689 1122.38 159.433 1121.76 158.921C1121.14 158.409 1120.69 157.716 1120.41 156.841C1120.14 155.966 1120 154.985 1120 153.897C1120 152.809 1120.14 151.828 1120.41 150.953C1120.69 150.078 1121.14 149.385 1121.76 148.873C1122.38 148.361 1123.2 148.105 1124.22 148.105C1125.25 148.105 1126.06 148.356 1126.67 148.857C1127.29 149.358 1127.74 150.046 1128.01 150.921C1128.29 151.796 1128.43 152.788 1128.43 153.897C1128.43 155.006 1128.29 155.998 1128.01 156.873C1127.74 157.748 1127.29 158.436 1126.67 158.937C1126.06 159.438 1125.25 159.689 1124.22 159.689ZM1124.22 158.489C1125.2 158.489 1125.92 158.078 1126.37 157.257C1126.82 156.436 1127.05 155.316 1127.05 153.897C1127.05 152.478 1126.82 151.358 1126.37 150.537C1125.92 149.716 1125.2 149.305 1124.22 149.305C1123.25 149.305 1122.53 149.716 1122.06 150.537C1121.6 151.358 1121.37 152.478 1121.37 153.897C1121.37 155.316 1121.6 156.436 1122.06 157.257C1122.53 158.078 1123.25 158.489 1124.22 158.489Z" fill="black" fill-opacity="0.8"/>
<path d="M1153.2 121.545L1153.2 165.687" stroke="black" stroke-width="0.730968" stroke-linecap="round"/>
<path d="M1153.2 143.615H1168.09L1179.42 175.497" stroke="black" stroke-width="0.730968"/>
</g>
<defs>
<filter id="filter0_f_2466_82" x="638.13" y="57.6044" width="482.6" height="482.6" filterUnits="userSpaceOnUse" color-interpolation-filters="sRGB">
<feFlood flood-opacity="0" result="BackgroundImageFix"/>
<feBlend mode="normal" in="SourceGraphic" in2="BackgroundImageFix" result="shape"/>
<feGaussianBlur stdDeviation="97.5757" result="effect1_foregroundBlur_2466_82"/>
</filter>
<filter id="filter1_f_2466_82" x="932.12" y="-73.3116" width="497.608" height="497.608" filterUnits="userSpaceOnUse" color-interpolation-filters="sRGB">
<feFlood flood-opacity="0" result="BackgroundImageFix"/>
<feBlend mode="normal" in="SourceGraphic" in2="BackgroundImageFix" result="shape"/>
<feGaussianBlur stdDeviation="97.5757" result="effect1_foregroundBlur_2466_82"/>
</filter>
<linearGradient id="paint0_linear_2466_82" x1="1280.73" y1="-26.6436" x2="1280.73" y2="678.99" gradientUnits="userSpaceOnUse">
<stop stop-opacity="0"/>
<stop offset="0.591585" stop-opacity="0.5"/>
<stop offset="0.814211" stop-opacity="0.5"/>
<stop offset="1" stop-opacity="0"/>
</linearGradient>
<linearGradient id="paint1_linear_2466_82" x1="1028.21" y1="74.1631" x2="1028.21" y2="75.1631" gradientUnits="userSpaceOnUse">
<stop stop-opacity="0"/>
<stop offset="1"/>
</linearGradient>
<linearGradient id="paint2_linear_2466_82" x1="1028.21" y1="174.966" x2="1028.21" y2="175.966" gradientUnits="userSpaceOnUse">
<stop stop-opacity="0"/>
<stop offset="1"/>
</linearGradient>
<linearGradient id="paint3_linear_2466_82" x1="1028.21" y1="275.773" x2="1028.21" y2="276.773" gradientUnits="userSpaceOnUse">
<stop stop-opacity="0"/>
<stop offset="1"/>
</linearGradient>
<linearGradient id="paint4_linear_2466_82" x1="1028.21" y1="376.581" x2="1028.21" y2="377.581" gradientUnits="userSpaceOnUse">
<stop stop-opacity="0"/>
<stop offset="1"/>
</linearGradient>
<linearGradient id="paint5_linear_2466_82" x1="1028.21" y1="477.384" x2="1028.21" y2="478.384" gradientUnits="userSpaceOnUse">
<stop stop-opacity="0"/>
<stop offset="1"/>
</linearGradient>
<linearGradient id="paint6_linear_2466_82" x1="1028.21" y1="578.187" x2="1028.21" y2="579.187" gradientUnits="userSpaceOnUse">
<stop stop-opacity="0"/>
<stop offset="1"/>
</linearGradient>
<linearGradient id="paint7_linear_2466_82" x1="1326.08" y1="287.386" x2="686.856" y2="679.644" gradientUnits="userSpaceOnUse">
<stop offset="0.0665628" stop-opacity="0"/>
<stop offset="0.160124"/>
<stop offset="0.762807"/>
<stop offset="0.941288"/>
</linearGradient>
<linearGradient id="paint8_linear_2466_82" x1="1013.5" y1="178.793" x2="1013.5" y2="578.108" gradientUnits="userSpaceOnUse">
<stop offset="0.189563" stop-opacity="0"/>
<stop offset="1"/>
</linearGradient>
<clipPath id="clip0_2466_82">
<rect width="1280" height="652" fill="white"/>
</clipPath>
</defs>
</svg>
