<svg width="25" height="25" viewBox="0 0 25 25" fill="none" xmlns="http://www.w3.org/2000/svg">
<path d="M13.283 16.4604L11.433 18.3104C11.043 18.7004 10.8307 18.9178 10.4307 18.5378C10.3207 18.4278 8.39129 16.7277 8.28129 16.6177C7.25129 15.5777 6.32129 14.4877 5.49129 13.3477C4.67129 12.2077 4.01129 11.0677 3.53129 9.93769C3.06129 8.79769 2.82129 7.70769 2.82129 6.66769C2.82129 5.98769 2.94129 5.33769 3.18129 4.73769C3.42129 4.12769 3.80129 3.56769 4.33129 3.06769C4.97129 2.43769 5.67129 2.12769 6.41129 2.12769C6.69129 2.12769 6.97129 2.18769 7.22129 2.30769C7.48129 2.42769 7.71129 2.60769 7.89129 2.86769L10.2113 6.13769C10.3913 6.38769 10.5213 6.61769 10.6113 6.83769C10.7013 7.04769 10.7513 7.25769 10.7513 7.44769C10.7513 7.68769 10.6813 7.92769 10.5413 8.15769C10.4113 8.38769 10.2213 8.62769 9.98129 8.86769L9.22129 9.65769C9.11129 9.76769 9.06129 9.89769 9.06129 10.0577C9.06129 10.1377 9.07129 10.2077 9.09129 10.2877C9.12129 10.3677 9.15129 10.4277 9.17129 10.4877C9.35129 10.8177 9.66129 11.2477 10.1013 11.7677C10.5513 12.2877 11.0313 12.8177 11.5513 13.3477C11.6513 13.4477 13.608 15.1722 13.708 15.2722C14.108 15.6622 13.683 16.0604 13.283 16.4604Z" fill="#F4F4F4"/>
<path d="M22.7909 18.4577C22.7909 18.7377 22.7409 19.0277 22.6409 19.3077C22.6109 19.3877 22.5809 19.4677 22.5409 19.5477C22.3709 19.9077 22.1509 20.2477 21.8609 20.5677C21.3709 21.1077 20.8309 21.4977 20.2209 21.7477C20.2109 21.7477 20.2009 21.7577 20.1909 21.7577C19.6009 21.9977 18.9609 22.1277 18.2709 22.1277C17.2509 22.1277 16.1609 21.8877 15.0109 21.3977C13.8609 20.9077 12.7109 20.2477 11.5709 19.4177C11.1809 19.1277 10.7909 18.8377 10.4209 18.5277L13.6909 15.2577C13.9709 15.4677 14.2209 15.6277 14.4309 15.7377C14.4809 15.7577 14.5409 15.7877 14.6109 15.8177C14.6909 15.8477 14.7709 15.8577 14.8609 15.8577C15.0309 15.8577 15.1609 15.7977 15.2709 15.6877L16.0309 14.9377C16.2809 14.6877 16.5209 14.4977 16.7509 14.3777C16.9809 14.2377 17.2109 14.1677 17.4609 14.1677C17.6509 14.1677 17.8509 14.2077 18.0709 14.2977C18.2909 14.3877 18.5209 14.5177 18.7709 14.6877L22.0809 17.0377C22.3409 17.2177 22.5209 17.4277 22.6309 17.6777C22.7309 17.9277 22.7909 18.1777 22.7909 18.4577Z" fill="#F4F4F4"/>
</svg>
