<svg width="404" height="517" viewBox="0 0 404 517" fill="none" xmlns="http://www.w3.org/2000/svg">
<g clip-path="url(#clip0_317_116)">
<path d="M167.668 555.891H235.667V410.568H167.668V555.891Z" fill="#5421B3"/>
<path d="M314.93 0.988265H88.4046C71.5294 0.988265 57.8477 14.67 57.8477 31.5452V414.722C57.8477 431.597 71.5294 445.277 88.4046 445.277H314.93C331.806 445.277 345.485 431.597 345.485 414.722V31.5452C345.485 14.67 331.806 0.988265 314.93 0.988265Z" fill="#3B0997"/>
<path d="M88.405 435.168C77.1318 435.168 67.959 425.995 67.959 414.722V31.5452C67.959 20.2699 77.1318 11.0991 88.405 11.0991H314.929C326.204 11.0991 335.377 20.2699 335.377 31.5452V414.722C335.377 425.995 326.204 435.168 314.929 435.168H88.405Z" fill="#5421B3"/>
<path d="M265.478 184.409H137.855C124.049 184.409 112.818 195.64 112.818 209.446V365.358C112.818 379.165 124.049 390.395 137.855 390.395H265.478C279.282 390.395 290.513 379.165 290.513 365.358V209.446C290.513 195.64 279.282 184.409 265.478 184.409Z" fill="#3B0997"/>
<path d="M265.477 189.609H137.856C126.901 189.609 118.02 198.491 118.02 209.446V365.359C118.02 376.314 126.901 385.195 137.856 385.195H265.477C276.433 385.195 285.314 376.314 285.314 365.359V209.446C285.314 198.491 276.433 189.609 265.477 189.609Z" fill="#C1A2FF"/>
<path d="M165.28 302.383C165.28 310.658 158.573 317.366 150.297 317.366C142.024 317.366 135.316 310.658 135.316 302.383C135.316 294.109 142.024 287.402 150.297 287.402C158.573 287.402 165.28 294.109 165.28 302.383Z" fill="#150247"/>
<path d="M151.014 215.203H252.321C255.161 215.203 257.464 212.9 257.464 210.062C257.464 207.221 255.161 204.918 252.321 204.918H151.014C148.173 204.918 145.871 207.221 145.871 210.062C145.871 212.9 148.173 215.203 151.014 215.203Z" fill="#08001E"/>
<path d="M252.321 227.033H151.014C148.173 227.033 145.871 229.333 145.871 232.174C145.871 235.015 148.173 237.317 151.014 237.317H252.321C255.161 237.317 257.464 235.015 257.464 232.174C257.464 229.333 255.161 227.033 252.321 227.033Z" fill="#08001E"/>
<path d="M252.321 249.145H151.014C148.173 249.145 145.871 251.447 145.871 254.286C145.871 257.127 148.173 259.429 151.014 259.429H252.321C255.161 259.429 257.464 257.127 257.464 254.286C257.464 251.447 255.161 249.145 252.321 249.145Z" fill="#08001E"/>
<path d="M252.321 352.442H151.014C148.173 352.442 145.871 354.744 145.871 357.585C145.871 360.426 148.173 362.728 151.014 362.728H252.321C255.161 362.728 257.464 360.426 257.464 357.585C257.464 354.744 255.161 352.442 252.321 352.442Z" fill="#08001E"/>
<path d="M96.0684 155.798H307.265V79.4832H96.0684V155.798Z" fill="#3B0997"/>
<path d="M259.31 98.736H144.024C132.532 98.736 123.215 108.052 123.215 119.543H280.117C280.117 108.052 270.801 98.736 259.31 98.736Z" fill="#08001E"/>
<path d="M280.119 119.543L307.265 155.798H96.0684L123.218 119.543H280.119Z" fill="#3B0997"/>
<path d="M201.668 555.891H235.667V445.277H201.668V555.891Z" fill="#08001E"/>
<path d="M314.931 445.277H201.668V435.168H314.929C326.204 435.168 335.377 425.995 335.377 414.722V31.5452C335.377 20.2699 326.204 11.0991 314.929 11.0991H303.38V0.988265H314.931C331.806 0.988265 345.486 14.67 345.486 31.5452V414.722C345.486 431.597 331.806 445.277 314.931 445.277Z" fill="#150247"/>
<path d="M314.929 435.168H201.668V390.395H265.48C279.284 390.395 290.514 379.165 290.514 365.359V209.446C290.514 195.64 279.284 184.409 265.48 184.409H201.668V155.798H307.265V79.4831H201.668V11.0991H303.38H314.929C326.204 11.0991 335.377 20.2699 335.377 31.5452V414.722C335.377 425.995 326.204 435.168 314.929 435.168Z" fill="#08001E"/>
<path d="M265.48 390.395H201.668V385.195H265.478C276.433 385.195 285.314 376.314 285.314 365.358V209.446C285.314 198.491 276.433 189.609 265.478 189.609H201.668V184.409H265.48C279.284 184.409 290.514 195.64 290.514 209.446V365.358C290.514 379.165 279.284 390.395 265.48 390.395Z" fill="#3B0997"/>
<path d="M265.478 385.195H201.668V362.728H252.32C255.161 362.728 257.463 360.425 257.463 357.585C257.463 354.744 255.161 352.442 252.32 352.442H201.668V259.429H252.32C255.161 259.429 257.463 257.127 257.463 254.286C257.463 251.447 255.161 249.145 252.32 249.145H201.668V237.317H252.32C255.161 237.317 257.463 235.015 257.463 232.174C257.463 229.333 255.161 227.033 252.32 227.033H201.668V215.203H252.32C255.161 215.203 257.463 212.9 257.463 210.062C257.463 207.221 255.161 204.918 252.32 204.918H201.668V189.609H265.478C276.433 189.609 285.314 198.491 285.314 209.446V365.359C285.314 376.314 276.433 385.195 265.478 385.195Z" fill="#9967FF"/>
<path d="M252.32 215.203H201.668V204.918H252.32C255.161 204.918 257.463 207.221 257.463 210.062C257.463 212.9 255.161 215.203 252.32 215.203Z" fill="#1D1D1D"/>
<path d="M252.32 237.317H201.668V227.033H252.32C255.161 227.033 257.463 229.333 257.463 232.174C257.463 235.015 255.161 237.317 252.32 237.317Z" fill="#1D1D1D"/>
<path d="M252.32 259.429H201.668V249.145H252.32C255.161 249.145 257.463 251.447 257.463 254.286C257.463 257.127 255.161 259.429 252.32 259.429Z" fill="#1D1D1D"/>
<path d="M252.32 362.728H201.668V352.442H252.32C255.161 352.442 257.463 354.744 257.463 357.585C257.463 360.426 255.161 362.728 252.32 362.728Z" fill="#1D1D1D"/>
<path d="M307.265 155.798L280.12 119.543H201.668H280.118C280.118 108.052 270.802 98.7361 259.311 98.7361H201.668V79.483H307.265V155.798Z" fill="#150247"/>
<path d="M280.118 119.543H201.668V98.736H259.311C270.802 98.736 280.118 108.052 280.118 119.543Z" fill="#08001E"/>
<path d="M307.265 155.798H201.668V119.543H280.12L307.265 155.798Z" fill="#150247"/>
<path d="M330.216 189.877L250.742 110.404C249.242 108.903 247.207 108.061 245.085 108.061H158.249C156.127 108.061 154.092 108.903 152.592 110.404L73.1179 189.877C68.0781 194.917 71.6475 203.534 78.7747 203.534H324.559C331.686 203.534 335.256 194.917 330.216 189.877Z" fill="url(#paint0_linear_317_116)"/>
<g filter="url(#filter0_d_317_116)">
<path d="M198.212 145.762L71.2617 198.292C72.9541 202.659 76.4284 203.28 78.3694 203.624L324.813 203.53C329.809 203.328 331.548 199.542 332.022 198.42L204.321 145.758C202.364 144.951 200.168 144.952 198.212 145.762Z" fill="#F8039C"/>
</g>
<rect x="201.672" y="0.996094" width="101.704" height="10.1016" fill="#150247"/>
</g>
<defs>
<filter id="filter0_d_317_116" x="65.7617" y="135.654" width="271.76" height="69.4702" filterUnits="userSpaceOnUse" color-interpolation-filters="sRGB">
<feFlood flood-opacity="0" result="BackgroundImageFix"/>
<feColorMatrix in="SourceAlpha" type="matrix" values="0 0 0 0 0 0 0 0 0 0 0 0 0 0 0 0 0 0 127 0" result="hardAlpha"/>
<feOffset dy="-4"/>
<feGaussianBlur stdDeviation="2.75"/>
<feComposite in2="hardAlpha" operator="out"/>
<feColorMatrix type="matrix" values="0 0 0 0 0 0 0 0 0 0 0 0 0 0 0 0 0 0 0.25 0"/>
<feBlend mode="normal" in2="BackgroundImageFix" result="effect1_dropShadow_317_116"/>
<feBlend mode="normal" in="SourceGraphic" in2="effect1_dropShadow_317_116" result="shape"/>
</filter>
<linearGradient id="paint0_linear_317_116" x1="201.667" y1="108.061" x2="201.667" y2="203.534" gradientUnits="userSpaceOnUse">
<stop stop-color="#08001E"/>
<stop offset="1" stop-color="#F8039C"/>
</linearGradient>
<clipPath id="clip0_317_116">
<rect width="403" height="516" fill="white" transform="translate(0.166016 0.988281)"/>
</clipPath>
</defs>
</svg>
