<svg width="25" height="25" viewBox="0 0 25 25" fill="none" xmlns="http://www.w3.org/2000/svg">
<path d="M9.97168 7.61768C9.41168 7.61768 8.97168 8.06768 8.97168 8.61768C8.97168 9.16768 9.42168 9.61768 9.97168 9.61768C10.5217 9.61768 10.9717 9.16768 10.9717 8.61768C10.9717 8.06768 10.5217 7.61768 9.97168 7.61768Z" fill="white"/>
<path d="M22.2813 5.16769C21.4413 3.21769 19.5913 2.12769 17.0113 2.12769H8.63129C5.42129 2.12769 2.82129 4.72769 2.82129 7.93769V16.3177C2.82129 18.8977 3.91129 20.7477 5.86129 21.5877C6.05129 21.6677 6.27129 21.6177 6.41129 21.4777L22.1713 5.71769C22.3213 5.56769 22.3713 5.34769 22.2813 5.16769ZM11.3513 12.3677C10.9613 12.7477 10.4513 12.9277 9.94129 12.9277C9.43129 12.9277 8.92129 12.7377 8.53129 12.3677C7.51129 11.4077 6.39129 9.87769 6.82129 8.05769C7.20129 6.40769 8.66129 5.66769 9.94129 5.66769C11.2213 5.66769 12.6813 6.40769 13.0613 8.06769C13.4813 9.87769 12.3613 11.4077 11.3513 12.3677Z" fill="white"/>
<path d="M20.2912 20.6577C20.5112 20.8777 20.4812 21.2377 20.2112 21.3877C19.3312 21.8777 18.2612 22.1277 17.0112 22.1277H8.63119C8.34119 22.1277 8.22119 21.7877 8.42119 21.5877L14.4612 15.5477C14.6612 15.3477 14.9712 15.3477 15.1712 15.5477L20.2912 20.6577Z" fill="white"/>
<path d="M22.8211 7.93758V16.3176C22.8211 17.5676 22.5711 18.6476 22.0811 19.5176C21.9311 19.7876 21.5711 19.8076 21.3511 19.5976L16.2311 14.4776C16.0311 14.2776 16.0311 13.9676 16.2311 13.7676L22.2711 7.72758C22.4811 7.52758 22.8211 7.64758 22.8211 7.93758Z" fill="white"/>
</svg>
