<svg width="25" height="25" viewBox="0 0 25 25" fill="none" xmlns="http://www.w3.org/2000/svg">
<path d="M6.82129 13.1277C4.06129 13.1277 1.82129 15.3577 1.82129 18.1277C1.82129 20.8977 4.06129 23.1277 6.82129 23.1277C9.58129 23.1277 11.8213 20.8877 11.8213 18.1277C11.8213 15.3677 9.59129 13.1277 6.82129 13.1277ZM4.78129 16.0877H6.82129C7.20129 16.0877 7.50129 16.3977 7.50129 16.7677C7.50129 17.1377 7.20129 17.4477 6.82129 17.4477H4.78129C4.40129 17.4477 4.10129 17.1377 4.10129 16.7677C4.10129 16.3977 4.40129 16.0877 4.78129 16.0877ZM8.86129 20.1677H4.78129C4.40129 20.1677 4.10129 19.8577 4.10129 19.4877C4.10129 19.1177 4.41129 18.8077 4.78129 18.8077H8.87129C9.25129 18.8077 9.55129 19.1177 9.55129 19.4877C9.55129 19.8577 9.24129 20.1677 8.86129 20.1677Z" fill="white"/>
<path d="M17.8213 3.12769H7.82129C4.82129 3.12769 2.82129 4.62769 2.82129 8.12769V11.2677C2.82129 11.9977 3.57129 12.4577 4.24129 12.1677C5.34129 11.6877 6.59129 11.5077 7.90129 11.7177C10.5213 12.1477 12.6613 14.2177 13.1913 16.8177C13.3413 17.5777 13.3613 18.3177 13.2613 19.0277C13.1813 19.6177 13.6613 20.1377 14.2513 20.1377H17.8213C20.8213 20.1377 22.8213 18.6377 22.8213 15.1377V8.12769C22.8213 4.62769 20.8213 3.12769 17.8213 3.12769ZM18.2913 8.71769L15.1613 11.2177C14.5013 11.7477 13.6613 12.0077 12.8213 12.0077C11.9813 12.0077 11.1313 11.7477 10.4813 11.2177L7.35129 8.71769C7.03129 8.45769 6.98129 7.97769 7.23129 7.65769C7.49129 7.33769 7.96129 7.27769 8.28129 7.53769L11.4113 10.0377C12.1713 10.6477 13.4613 10.6477 14.2213 10.0377L17.3513 7.53769C17.6713 7.27769 18.1513 7.32769 18.4013 7.65769C18.6613 7.97769 18.6113 8.45769 18.2913 8.71769Z" fill="white"/>
</svg>
